<svg width="177" height="294" viewBox="0 0 177 294" fill="none" xmlns="http://www.w3.org/2000/svg">
<path d="M15.0328 198C14.8728 198 14.7228 197.94 14.5828 197.82C14.4628 197.7 14.4028 197.55 14.4028 197.37L14.4628 197.1L21.6928 177.75C21.8328 177.25 22.1828 177 22.7428 177H26.0128C26.5328 177 26.8828 177.25 27.0628 177.75L34.2928 197.1C34.3128 197.16 34.3228 197.25 34.3228 197.37C34.3228 197.55 34.2628 197.7 34.1428 197.82C34.0228 197.94 33.8828 198 33.7228 198H31.1128C30.8528 198 30.6528 197.94 30.5128 197.82C30.3728 197.7 30.2828 197.57 30.2428 197.43L28.8328 193.77H19.9228L18.5128 197.43C18.3528 197.81 18.0628 198 17.6428 198H15.0328ZM27.7828 190.32L24.3628 181.05L20.9728 190.32H27.7828ZM44.2378 198.3C42.0378 198.3 40.2778 197.69 38.9578 196.47C37.6578 195.25 36.9678 193.56 36.8878 191.4L36.8578 190.2L36.8878 189C36.9678 186.84 37.6578 185.15 38.9578 183.93C40.2778 182.71 42.0378 182.1 44.2378 182.1C45.7978 182.1 47.1178 182.38 48.1978 182.94C49.2978 183.5 50.1078 184.19 50.6278 185.01C51.1678 185.81 51.4578 186.57 51.4978 187.29C51.5178 187.49 51.4478 187.66 51.2878 187.8C51.1478 187.94 50.9778 188.01 50.7778 188.01H48.1378C47.9378 188.01 47.7778 187.97 47.6578 187.89C47.5578 187.79 47.4578 187.63 47.3578 187.41C47.0578 186.63 46.6578 186.07 46.1578 185.73C45.6778 185.39 45.0578 185.22 44.2978 185.22C43.2778 185.22 42.4778 185.55 41.8978 186.21C41.3178 186.85 41.0078 187.83 40.9678 189.15L40.9378 190.26L40.9678 191.25C41.0478 193.87 42.1578 195.18 44.2978 195.18C45.0778 195.18 45.7078 195.01 46.1878 194.67C46.6678 194.33 47.0578 193.77 47.3578 192.99C47.4578 192.77 47.5578 192.62 47.6578 192.54C47.7778 192.44 47.9378 192.39 48.1378 192.39H50.7778C50.9778 192.39 51.1478 192.46 51.2878 192.6C51.4478 192.74 51.5178 192.91 51.4978 193.11C51.4578 193.81 51.1778 194.56 50.6578 195.36C50.1378 196.16 49.3378 196.85 48.2578 197.43C47.1778 198.01 45.8378 198.3 44.2378 198.3ZM60.0565 198.3C59.0365 198.3 58.0965 198.1 57.2365 197.7C56.3965 197.28 55.7265 196.72 55.2265 196.02C54.7465 195.32 54.5065 194.55 54.5065 193.71C54.5065 192.35 55.0565 191.25 56.1565 190.41C57.2565 189.57 58.7665 189 60.6865 188.7L64.7965 188.1V187.47C64.7965 186.59 64.5765 185.93 64.1365 185.49C63.6965 185.05 62.9865 184.83 62.0065 184.83C61.3465 184.83 60.8065 184.96 60.3865 185.22C59.9865 185.46 59.6665 185.7 59.4265 185.94C59.1865 186.2 59.0265 186.37 58.9465 186.45C58.8665 186.69 58.7165 186.81 58.4965 186.81H56.1865C56.0065 186.81 55.8465 186.75 55.7065 186.63C55.5865 186.51 55.5265 186.35 55.5265 186.15C55.5465 185.65 55.7865 185.08 56.2465 184.44C56.7265 183.8 57.4565 183.25 58.4365 182.79C59.4165 182.33 60.6165 182.1 62.0365 182.1C64.3965 182.1 66.1165 182.63 67.1965 183.69C68.2765 184.75 68.8165 186.14 68.8165 187.86V197.28C68.8165 197.48 68.7465 197.65 68.6065 197.79C68.4865 197.93 68.3165 198 68.0965 198H65.6665C65.4665 198 65.2965 197.93 65.1565 197.79C65.0165 197.65 64.9465 197.48 64.9465 197.28V196.11C64.5065 196.75 63.8765 197.28 63.0565 197.7C62.2565 198.1 61.2565 198.3 60.0565 198.3ZM61.0765 195.45C62.1765 195.45 63.0765 195.09 63.7765 194.37C64.4765 193.65 64.8265 192.6 64.8265 191.22V190.59L61.8265 191.07C60.6665 191.25 59.7865 191.54 59.1865 191.94C58.6065 192.34 58.3165 192.83 58.3165 193.41C58.3165 194.05 58.5865 194.55 59.1265 194.91C59.6665 195.27 60.3165 195.45 61.0765 195.45ZM79.3552 198.3C77.3352 198.3 75.7852 197.65 74.7052 196.35C73.6252 195.05 73.0452 193.32 72.9652 191.16L72.9352 190.17L72.9652 189.21C73.0252 187.11 73.5952 185.4 74.6752 184.08C75.7752 182.76 77.3352 182.1 79.3552 182.1C81.2952 182.1 82.8352 182.76 83.9752 184.08V177.42C83.9752 177.2 84.0452 177.03 84.1852 176.91C84.3252 176.77 84.4952 176.7 84.6952 176.7H87.2452C87.4652 176.7 87.6352 176.77 87.7552 176.91C87.8952 177.03 87.9652 177.2 87.9652 177.42V197.28C87.9652 197.48 87.8952 197.65 87.7552 197.79C87.6352 197.93 87.4652 198 87.2452 198H84.8752C84.6752 198 84.5052 197.93 84.3652 197.79C84.2252 197.65 84.1552 197.48 84.1552 197.28V196.17C83.0152 197.59 81.4152 198.3 79.3552 198.3ZM80.4652 195.09C81.6252 195.09 82.4852 194.72 83.0452 193.98C83.6052 193.24 83.9152 192.33 83.9752 191.25C83.9952 191.01 84.0052 190.62 84.0052 190.08C84.0052 189.56 83.9952 189.18 83.9752 188.94C83.9352 187.94 83.6152 187.09 83.0152 186.39C82.4352 185.67 81.5852 185.31 80.4652 185.31C78.3052 185.31 77.1552 186.64 77.0152 189.3L76.9852 190.2L77.0152 191.1C77.1552 193.76 78.3052 195.09 80.4652 195.09ZM99.5836 198.3C97.3636 198.3 95.5936 197.66 94.2736 196.38C92.9736 195.08 92.2836 193.26 92.2036 190.92L92.1736 190.17L92.2036 189.42C92.3036 187.14 93.0036 185.35 94.3036 184.05C95.6236 182.75 97.3836 182.1 99.5836 182.1C101.944 182.1 103.764 182.82 105.044 184.26C106.344 185.7 106.994 187.62 106.994 190.02V190.65C106.994 190.85 106.924 191.02 106.784 191.16C106.644 191.3 106.464 191.37 106.244 191.37H96.2836V191.61C96.3236 192.71 96.6236 193.64 97.1836 194.4C97.7636 195.14 98.5536 195.51 99.5536 195.51C100.734 195.51 101.684 195.05 102.404 194.13C102.584 193.91 102.724 193.77 102.824 193.71C102.944 193.65 103.114 193.62 103.334 193.62H105.914C106.094 193.62 106.244 193.68 106.364 193.8C106.504 193.9 106.574 194.03 106.574 194.19C106.574 194.67 106.284 195.24 105.704 195.9C105.144 196.54 104.334 197.1 103.274 197.58C102.214 198.06 100.984 198.3 99.5836 198.3ZM102.914 188.85V188.76C102.914 187.58 102.614 186.63 102.014 185.91C101.434 185.19 100.624 184.83 99.5836 184.83C98.5436 184.83 97.7336 185.19 97.1536 185.91C96.5736 186.63 96.2836 187.58 96.2836 188.76V188.85H102.914ZM111.798 198C111.598 198 111.428 197.93 111.288 197.79C111.148 197.65 111.078 197.48 111.078 197.28V183.12C111.078 182.92 111.148 182.75 111.288 182.61C111.428 182.47 111.598 182.4 111.798 182.4H114.138C114.338 182.4 114.508 182.47 114.648 182.61C114.788 182.75 114.858 182.92 114.858 183.12V184.14C115.898 182.78 117.348 182.1 119.208 182.1C121.428 182.1 122.978 182.99 123.858 184.77C124.338 183.97 125.018 183.33 125.898 182.85C126.778 182.35 127.728 182.1 128.748 182.1C130.388 182.1 131.728 182.66 132.768 183.78C133.808 184.9 134.328 186.53 134.328 188.67V197.28C134.328 197.48 134.258 197.65 134.118 197.79C133.998 197.93 133.828 198 133.608 198H131.148C130.948 198 130.778 197.93 130.638 197.79C130.498 197.65 130.428 197.48 130.428 197.28V188.91C130.428 187.65 130.158 186.74 129.618 186.18C129.098 185.6 128.398 185.31 127.518 185.31C126.738 185.31 126.068 185.6 125.508 186.18C124.968 186.76 124.698 187.67 124.698 188.91V197.28C124.698 197.48 124.628 197.65 124.488 197.79C124.348 197.93 124.178 198 123.978 198H121.518C121.318 198 121.148 197.93 121.008 197.79C120.868 197.65 120.798 197.48 120.798 197.28V188.91C120.798 187.65 120.518 186.74 119.958 186.18C119.418 185.6 118.728 185.31 117.888 185.31C117.088 185.31 116.408 185.6 115.848 186.18C115.308 186.76 115.038 187.67 115.038 188.91V197.28C115.038 197.48 114.968 197.65 114.828 197.79C114.688 197.93 114.518 198 114.318 198H111.798ZM139.648 179.82C139.448 179.82 139.278 179.75 139.138 179.61C138.998 179.47 138.928 179.3 138.928 179.1V176.94C138.928 176.74 138.998 176.57 139.138 176.43C139.278 176.29 139.448 176.22 139.648 176.22H142.378C142.578 176.22 142.748 176.29 142.888 176.43C143.048 176.57 143.128 176.74 143.128 176.94V179.1C143.128 179.3 143.058 179.47 142.918 179.61C142.778 179.75 142.598 179.82 142.378 179.82H139.648ZM139.768 198C139.568 198 139.398 197.93 139.258 197.79C139.118 197.65 139.048 197.48 139.048 197.28V183.12C139.048 182.92 139.118 182.75 139.258 182.61C139.398 182.47 139.568 182.4 139.768 182.4H142.258C142.478 182.4 142.648 182.47 142.768 182.61C142.908 182.73 142.978 182.9 142.978 183.12V197.28C142.978 197.48 142.908 197.65 142.768 197.79C142.648 197.93 142.478 198 142.258 198H139.768ZM152.389 198.3C151.369 198.3 150.429 198.1 149.569 197.7C148.729 197.28 148.059 196.72 147.559 196.02C147.079 195.32 146.839 194.55 146.839 193.71C146.839 192.35 147.389 191.25 148.489 190.41C149.589 189.57 151.099 189 153.019 188.7L157.129 188.1V187.47C157.129 186.59 156.909 185.93 156.469 185.49C156.029 185.05 155.319 184.83 154.339 184.83C153.679 184.83 153.139 184.96 152.719 185.22C152.319 185.46 151.999 185.7 151.759 185.94C151.519 186.2 151.359 186.37 151.279 186.45C151.199 186.69 151.049 186.81 150.829 186.81H148.519C148.339 186.81 148.179 186.75 148.039 186.63C147.919 186.51 147.859 186.35 147.859 186.15C147.879 185.65 148.119 185.08 148.579 184.44C149.059 183.8 149.789 183.25 150.769 182.79C151.749 182.33 152.949 182.1 154.369 182.1C156.729 182.1 158.449 182.63 159.529 183.69C160.609 184.75 161.149 186.14 161.149 187.86V197.28C161.149 197.48 161.079 197.65 160.939 197.79C160.819 197.93 160.649 198 160.429 198H157.999C157.799 198 157.629 197.93 157.489 197.79C157.349 197.65 157.279 197.48 157.279 197.28V196.11C156.839 196.75 156.209 197.28 155.389 197.7C154.589 198.1 153.589 198.3 152.389 198.3ZM153.409 195.45C154.509 195.45 155.409 195.09 156.109 194.37C156.809 193.65 157.159 192.6 157.159 191.22V190.59L154.159 191.07C152.999 191.25 152.119 191.54 151.519 191.94C150.939 192.34 150.649 192.83 150.649 193.41C150.649 194.05 150.919 194.55 151.459 194.91C151.999 195.27 152.649 195.45 153.409 195.45ZM9.05813 239.3C6.85813 239.3 5.09813 238.69 3.77813 237.47C2.47813 236.25 1.78813 234.56 1.70813 232.4L1.67813 231.2L1.70813 230C1.78813 227.84 2.47813 226.15 3.77813 224.93C5.09813 223.71 6.85813 223.1 9.05813 223.1C10.6181 223.1 11.9381 223.38 13.0181 223.94C14.1181 224.5 14.9281 225.19 15.4481 226.01C15.9881 226.81 16.2781 227.57 16.3181 228.29C16.3381 228.49 16.2681 228.66 16.1081 228.8C15.9681 228.94 15.7981 229.01 15.5981 229.01H12.9581C12.7581 229.01 12.5981 228.97 12.4781 228.89C12.3781 228.79 12.2781 228.63 12.1781 228.41C11.8781 227.63 11.4781 227.07 10.9781 226.73C10.4981 226.39 9.87813 226.22 9.11813 226.22C8.09813 226.22 7.29813 226.55 6.71813 227.21C6.13813 227.85 5.82813 228.83 5.78813 230.15L5.75813 231.26L5.78813 232.25C5.86813 234.87 6.97813 236.18 9.11813 236.18C9.89813 236.18 10.5281 236.01 11.0081 235.67C11.4881 235.33 11.8781 234.77 12.1781 233.99C12.2781 233.77 12.3781 233.62 12.4781 233.54C12.5981 233.44 12.7581 233.39 12.9581 233.39H15.5981C15.7981 233.39 15.9681 233.46 16.1081 233.6C16.2681 233.74 16.3381 233.91 16.3181 234.11C16.2781 234.81 15.9981 235.56 15.4781 236.36C14.9581 237.16 14.1581 237.85 13.0781 238.43C11.9981 239.01 10.6581 239.3 9.05813 239.3ZM27.2468 239.3C24.9068 239.3 23.0968 238.7 21.8168 237.5C20.5368 236.28 19.8468 234.62 19.7468 232.52L19.7168 231.2L19.7468 229.88C19.8468 227.8 20.5468 226.15 21.8468 224.93C23.1468 223.71 24.9468 223.1 27.2468 223.1C29.5468 223.1 31.3468 223.71 32.6468 224.93C33.9468 226.15 34.6468 227.8 34.7468 229.88C34.7668 230.12 34.7768 230.56 34.7768 231.2C34.7768 231.84 34.7668 232.28 34.7468 232.52C34.6468 234.62 33.9568 236.28 32.6768 237.5C31.3968 238.7 29.5868 239.3 27.2468 239.3ZM27.2468 236.33C28.3068 236.33 29.1268 236 29.7068 235.34C30.2868 234.66 30.6068 233.67 30.6668 232.37C30.6868 232.17 30.6968 231.78 30.6968 231.2C30.6968 230.62 30.6868 230.23 30.6668 230.03C30.6068 228.73 30.2868 227.75 29.7068 227.09C29.1268 226.41 28.3068 226.07 27.2468 226.07C26.1868 226.07 25.3668 226.41 24.7868 227.09C24.2068 227.75 23.8868 228.73 23.8268 230.03L23.7968 231.2L23.8268 232.37C23.8868 233.67 24.2068 234.66 24.7868 235.34C25.3668 236 26.1868 236.33 27.2468 236.33ZM39.7207 239C39.5207 239 39.3507 238.93 39.2107 238.79C39.0707 238.65 39.0007 238.48 39.0007 238.28V224.15C39.0007 223.95 39.0707 223.78 39.2107 223.64C39.3507 223.48 39.5207 223.4 39.7207 223.4H42.1507C42.3707 223.4 42.5507 223.47 42.6907 223.61C42.8307 223.75 42.9007 223.93 42.9007 224.15V225.38C43.3807 224.74 43.9807 224.25 44.7007 223.91C45.4407 223.57 46.2807 223.4 47.2207 223.4H48.4507C48.6707 223.4 48.8407 223.47 48.9607 223.61C49.1007 223.73 49.1707 223.9 49.1707 224.12V226.28C49.1707 226.48 49.1007 226.65 48.9607 226.79C48.8407 226.93 48.6707 227 48.4507 227H46.1107C45.1707 227 44.4307 227.27 43.8907 227.81C43.3507 228.35 43.0807 229.09 43.0807 230.03V238.28C43.0807 238.48 43.0107 238.65 42.8707 238.79C42.7307 238.93 42.5507 239 42.3307 239H39.7207ZM53.1605 244.7C52.9605 244.7 52.7905 244.63 52.6505 244.49C52.5105 244.37 52.4405 244.2 52.4405 243.98V224.12C52.4405 223.9 52.5105 223.73 52.6505 223.61C52.7905 223.47 52.9605 223.4 53.1605 223.4H55.5305C55.7505 223.4 55.9205 223.47 56.0405 223.61C56.1805 223.73 56.2505 223.9 56.2505 224.12V225.32C57.3705 223.84 58.9705 223.1 61.0505 223.1C63.0705 223.1 64.6205 223.74 65.7005 225.02C66.7805 226.28 67.3605 227.99 67.4405 230.15C67.4605 230.39 67.4705 230.74 67.4705 231.2C67.4705 231.68 67.4605 232.04 67.4405 232.28C67.3605 234.38 66.7805 236.08 65.7005 237.38C64.6205 238.66 63.0705 239.3 61.0505 239.3C59.0305 239.3 57.4905 238.59 56.4305 237.17V243.98C56.4305 244.2 56.3605 244.37 56.2205 244.49C56.1005 244.63 55.9305 244.7 55.7105 244.7H53.1605ZM59.9405 236.09C62.1005 236.09 63.2505 234.76 63.3905 232.1C63.4105 231.9 63.4205 231.6 63.4205 231.2C63.4205 230.8 63.4105 230.5 63.3905 230.3C63.2505 227.64 62.1005 226.31 59.9405 226.31C58.7805 226.31 57.9205 226.68 57.3605 227.42C56.8005 228.16 56.4905 229.07 56.4305 230.15L56.4005 231.29L56.4305 232.46C56.4705 233.46 56.7805 234.32 57.3605 235.04C57.9605 235.74 58.8205 236.09 59.9405 236.09ZM78.6382 239.3C76.2982 239.3 74.4882 238.7 73.2082 237.5C71.9282 236.28 71.2382 234.62 71.1382 232.52L71.1082 231.2L71.1382 229.88C71.2382 227.8 71.9382 226.15 73.2382 224.93C74.5382 223.71 76.3382 223.1 78.6382 223.1C80.9382 223.1 82.7382 223.71 84.0382 224.93C85.3382 226.15 86.0382 227.8 86.1382 229.88C86.1582 230.12 86.1682 230.56 86.1682 231.2C86.1682 231.84 86.1582 232.28 86.1382 232.52C86.0382 234.62 85.3482 236.28 84.0682 237.5C82.7882 238.7 80.9782 239.3 78.6382 239.3ZM78.6382 236.33C79.6982 236.33 80.5182 236 81.0982 235.34C81.6782 234.66 81.9982 233.67 82.0582 232.37C82.0782 232.17 82.0882 231.78 82.0882 231.2C82.0882 230.62 82.0782 230.23 82.0582 230.03C81.9982 228.73 81.6782 227.75 81.0982 227.09C80.5182 226.41 79.6982 226.07 78.6382 226.07C77.5782 226.07 76.7582 226.41 76.1782 227.09C75.5982 227.75 75.2782 228.73 75.2182 230.03L75.1882 231.2L75.2182 232.37C75.2782 233.67 75.5982 234.66 76.1782 235.34C76.7582 236 77.5782 236.33 78.6382 236.33ZM91.1121 239C90.9121 239 90.7421 238.93 90.6021 238.79C90.4621 238.65 90.3921 238.48 90.3921 238.28V224.15C90.3921 223.95 90.4621 223.78 90.6021 223.64C90.7421 223.48 90.9121 223.4 91.1121 223.4H93.5421C93.7621 223.4 93.9421 223.47 94.0821 223.61C94.2221 223.75 94.2921 223.93 94.2921 224.15V225.38C94.7721 224.74 95.3721 224.25 96.0921 223.91C96.8321 223.57 97.6721 223.4 98.6121 223.4H99.8421C100.062 223.4 100.232 223.47 100.352 223.61C100.492 223.73 100.562 223.9 100.562 224.12V226.28C100.562 226.48 100.492 226.65 100.352 226.79C100.232 226.93 100.062 227 99.8421 227H97.5021C96.5621 227 95.8221 227.27 95.2821 227.81C94.7421 228.35 94.4721 229.09 94.4721 230.03V238.28C94.4721 238.48 94.4021 238.65 94.2621 238.79C94.1221 238.93 93.9421 239 93.7221 239H91.1121ZM108.098 239.3C107.078 239.3 106.138 239.1 105.278 238.7C104.438 238.28 103.768 237.72 103.268 237.02C102.788 236.32 102.548 235.55 102.548 234.71C102.548 233.35 103.098 232.25 104.198 231.41C105.298 230.57 106.808 230 108.728 229.7L112.838 229.1V228.47C112.838 227.59 112.618 226.93 112.178 226.49C111.738 226.05 111.028 225.83 110.048 225.83C109.388 225.83 108.848 225.96 108.428 226.22C108.028 226.46 107.708 226.7 107.468 226.94C107.228 227.2 107.068 227.37 106.988 227.45C106.908 227.69 106.758 227.81 106.538 227.81H104.228C104.048 227.81 103.888 227.75 103.748 227.63C103.628 227.51 103.568 227.35 103.568 227.15C103.588 226.65 103.828 226.08 104.288 225.44C104.768 224.8 105.498 224.25 106.478 223.79C107.458 223.33 108.658 223.1 110.078 223.1C112.438 223.1 114.158 223.63 115.238 224.69C116.318 225.75 116.858 227.14 116.858 228.86V238.28C116.858 238.48 116.788 238.65 116.648 238.79C116.528 238.93 116.358 239 116.138 239H113.708C113.508 239 113.338 238.93 113.198 238.79C113.058 238.65 112.988 238.48 112.988 238.28V237.11C112.548 237.75 111.918 238.28 111.098 238.7C110.298 239.1 109.298 239.3 108.098 239.3ZM109.118 236.45C110.218 236.45 111.118 236.09 111.818 235.37C112.518 234.65 112.868 233.6 112.868 232.22V231.59L109.868 232.07C108.708 232.25 107.828 232.54 107.228 232.94C106.648 233.34 106.358 233.83 106.358 234.41C106.358 235.05 106.628 235.55 107.168 235.91C107.708 236.27 108.358 236.45 109.118 236.45ZM128.51 239C126.69 239 125.32 238.53 124.4 237.59C123.5 236.63 123.05 235.23 123.05 233.39V226.58H120.68C120.48 226.58 120.31 226.51 120.17 226.37C120.03 226.21 119.96 226.03 119.96 225.83V224.12C119.96 223.92 120.03 223.75 120.17 223.61C120.31 223.47 120.48 223.4 120.68 223.4H123.05V218.42C123.05 218.2 123.12 218.03 123.26 217.91C123.4 217.77 123.57 217.7 123.77 217.7H126.2C126.42 217.7 126.59 217.77 126.71 217.91C126.85 218.03 126.92 218.2 126.92 218.42V223.4H130.67C130.89 223.4 131.06 223.47 131.18 223.61C131.32 223.73 131.39 223.9 131.39 224.12V225.83C131.39 226.05 131.32 226.23 131.18 226.37C131.04 226.51 130.87 226.58 130.67 226.58H126.92V233.09C126.92 233.95 127.07 234.6 127.37 235.04C127.67 235.48 128.17 235.7 128.87 235.7H130.94C131.14 235.7 131.31 235.77 131.45 235.91C131.59 236.05 131.66 236.22 131.66 236.42V238.28C131.66 238.48 131.59 238.65 131.45 238.79C131.33 238.93 131.16 239 130.94 239H128.51ZM135.821 220.82C135.621 220.82 135.451 220.75 135.311 220.61C135.171 220.47 135.101 220.3 135.101 220.1V217.94C135.101 217.74 135.171 217.57 135.311 217.43C135.451 217.29 135.621 217.22 135.821 217.22H138.551C138.751 217.22 138.921 217.29 139.061 217.43C139.221 217.57 139.301 217.74 139.301 217.94V220.1C139.301 220.3 139.231 220.47 139.091 220.61C138.951 220.75 138.771 220.82 138.551 220.82H135.821ZM135.941 239C135.741 239 135.571 238.93 135.431 238.79C135.291 238.65 135.221 238.48 135.221 238.28V224.12C135.221 223.92 135.291 223.75 135.431 223.61C135.571 223.47 135.741 223.4 135.941 223.4H138.431C138.651 223.4 138.821 223.47 138.941 223.61C139.081 223.73 139.151 223.9 139.151 224.12V238.28C139.151 238.48 139.081 238.65 138.941 238.79C138.821 238.93 138.651 239 138.431 239H135.941ZM149.551 239C149.251 239 149.021 238.94 148.861 238.82C148.701 238.68 148.571 238.49 148.471 238.25L142.861 224.33L142.801 224.06C142.801 223.88 142.861 223.73 142.981 223.61C143.121 223.47 143.281 223.4 143.461 223.4H145.891C146.271 223.4 146.531 223.59 146.671 223.97L150.661 234.5L154.651 223.97C154.711 223.83 154.801 223.7 154.921 223.58C155.061 223.46 155.231 223.4 155.431 223.4H157.891C158.051 223.4 158.191 223.47 158.311 223.61C158.451 223.73 158.521 223.88 158.521 224.06C158.521 224.18 158.511 224.27 158.491 224.33L152.851 238.25C152.751 238.49 152.621 238.68 152.461 238.82C152.301 238.94 152.071 239 151.771 239H149.551ZM166.043 239.3C165.023 239.3 164.083 239.1 163.223 238.7C162.383 238.28 161.713 237.72 161.213 237.02C160.733 236.32 160.493 235.55 160.493 234.71C160.493 233.35 161.043 232.25 162.143 231.41C163.243 230.57 164.753 230 166.673 229.7L170.783 229.1V228.47C170.783 227.59 170.563 226.93 170.123 226.49C169.683 226.05 168.973 225.83 167.993 225.83C167.333 225.83 166.793 225.96 166.373 226.22C165.973 226.46 165.653 226.7 165.413 226.94C165.173 227.2 165.013 227.37 164.933 227.45C164.853 227.69 164.703 227.81 164.483 227.81H162.173C161.993 227.81 161.833 227.75 161.693 227.63C161.573 227.51 161.513 227.35 161.513 227.15C161.533 226.65 161.773 226.08 162.233 225.44C162.713 224.8 163.443 224.25 164.423 223.79C165.403 223.33 166.603 223.1 168.023 223.1C170.383 223.1 172.103 223.63 173.183 224.69C174.263 225.75 174.803 227.14 174.803 228.86V238.28C174.803 238.48 174.733 238.65 174.593 238.79C174.473 238.93 174.303 239 174.083 239H171.653C171.453 239 171.283 238.93 171.143 238.79C171.003 238.65 170.933 238.48 170.933 238.28V237.11C170.493 237.75 169.863 238.28 169.043 238.7C168.243 239.1 167.243 239.3 166.043 239.3ZM167.063 236.45C168.163 236.45 169.063 236.09 169.763 235.37C170.463 234.65 170.813 233.6 170.813 232.22V231.59L167.813 232.07C166.653 232.25 165.773 232.54 165.173 232.94C164.593 233.34 164.303 233.83 164.303 234.41C164.303 235.05 164.573 235.55 165.113 235.91C165.653 236.27 166.303 236.45 167.063 236.45Z" fill="#333333"/>
<circle opacity="0.2" cx="77" cy="72" r="72" fill="#F2C94C" fill-opacity="0.8"/>
<path d="M163.688 70.2812H155.878V60.8312C155.875 58.5197 154.956 56.3036 153.321 54.6691C151.687 53.0346 149.471 52.1152 147.159 52.1125H142.27C141.959 50.0499 140.92 48.1668 139.34 46.8047C137.76 45.4425 135.745 44.6914 133.659 44.6875H126.909C126.65 44.6874 126.394 44.7382 126.155 44.8371C125.916 44.9359 125.699 45.081 125.517 45.2638C125.334 45.4466 125.189 45.6637 125.09 45.9027C124.991 46.1416 124.94 46.3977 124.94 46.6563V70.2812H73.0598V46.6563C73.0599 46.3977 73.0091 46.1416 72.9102 45.9027C72.8113 45.6637 72.6663 45.4466 72.4834 45.2638C72.3006 45.081 72.0835 44.9359 71.8446 44.8371C71.6057 44.7382 71.3496 44.6874 71.091 44.6875H64.341C62.2551 44.6914 60.2397 45.4425 58.66 46.8047C57.0803 48.1668 56.0409 50.0499 55.7302 52.1125H50.841C48.5295 52.1152 46.3134 53.0346 44.6789 54.6691C43.0444 56.3036 42.1249 58.5197 42.1223 60.8312V70.2812H34.3125C34.0539 70.2811 33.7978 70.3319 33.5589 70.4308C33.32 70.5297 33.1029 70.6747 32.9201 70.8576C32.7372 71.0404 32.5922 71.2575 32.4933 71.4964C32.3944 71.7353 32.3436 71.9914 32.3438 72.25V85.75C32.3436 86.0086 32.3944 86.2647 32.4933 86.5036C32.5922 86.7425 32.7372 86.9596 32.9201 87.1424C33.1029 87.3253 33.32 87.4703 33.5589 87.5692C33.7978 87.6681 34.0539 87.7189 34.3125 87.7188H42.1223V97.1688C42.1249 99.4803 43.0444 101.696 44.6789 103.331C46.3134 104.965 48.5295 105.885 50.841 105.888H55.7302C56.0409 107.95 57.0803 109.833 58.66 111.195C60.2397 112.557 62.2551 113.309 64.341 113.312H71.091C71.3496 113.313 71.6057 113.262 71.8446 113.163C72.0835 113.064 72.3006 112.919 72.4834 112.736C72.6663 112.553 72.8113 112.336 72.9102 112.097C73.0091 111.858 73.0599 111.602 73.0598 111.344V87.7188H124.94V111.344C124.94 111.602 124.991 111.858 125.09 112.097C125.189 112.336 125.334 112.553 125.517 112.736C125.699 112.919 125.916 113.064 126.155 113.163C126.394 113.262 126.65 113.313 126.909 113.312H133.659C135.745 113.309 137.76 112.557 139.34 111.195C140.92 109.833 141.959 107.95 142.27 105.888H147.159C149.471 105.885 151.687 104.965 153.321 103.331C154.956 101.696 155.875 99.4803 155.878 97.1688V87.7188H163.688C163.946 87.7189 164.202 87.6681 164.441 87.5692C164.68 87.4703 164.897 87.3253 165.08 87.1424C165.263 86.9596 165.408 86.7425 165.507 86.5036C165.606 86.2647 165.656 86.0086 165.656 85.75V72.25C165.656 71.9914 165.606 71.7353 165.507 71.4964C165.408 71.2575 165.263 71.0404 165.08 70.8576C164.897 70.6747 164.68 70.5297 164.441 70.4308C164.202 70.3319 163.946 70.2811 163.688 70.2812ZM36.2813 83.7812V74.2188H42.1223V83.7812H36.2813ZM46.0597 97.1688V60.8312C46.0612 59.5636 46.5655 58.3484 47.4618 57.452C48.3581 56.5557 49.5734 56.0515 50.841 56.05H55.6222V101.95H50.841C49.5736 101.949 48.3585 101.444 47.4622 100.548C46.5659 99.6523 46.0615 98.4373 46.0597 97.1699V97.1688ZM64.341 109.375C63.0734 109.374 61.8581 108.869 60.9618 107.973C60.0655 107.077 59.5612 105.861 59.5597 104.594V53.4063C59.5612 52.1386 60.0655 50.9234 60.9618 50.027C61.8581 49.1307 63.0734 48.6265 64.341 48.625H69.1223V72.2286V72.25V72.2714V85.7286V85.75V85.7714V109.375H64.341ZM73.0598 83.7812V74.2188H124.94V83.7812H73.0598ZM138.44 104.594C138.439 105.861 137.935 107.077 137.038 107.973C136.142 108.869 134.927 109.374 133.659 109.375H128.878V85.7714V85.75V85.7286V72.2714V72.25V72.2286V48.625H133.659C134.927 48.6265 136.142 49.1307 137.038 50.027C137.935 50.9234 138.439 52.1386 138.44 53.4063V104.594ZM151.94 97.1688C151.939 98.4364 151.435 99.6516 150.538 100.548C149.642 101.444 148.427 101.949 147.159 101.95H142.378V56.05H147.159C148.427 56.0515 149.642 56.5557 150.538 57.452C151.435 58.3484 151.939 59.5636 151.94 60.8312V97.1688ZM161.719 83.7812H155.878V74.2188H161.719V83.7812Z" fill="black"/>
<path d="M42.34 279.02V281H32.6V266.8H42.16V268.78H34.84V272.82H41.18V274.68H34.84V279.02H42.34ZM57.7908 281V270.78L53.5708 278.52H52.3308L48.0908 270.78V281H45.8508V266.8H48.2508L52.9508 275.48L57.6508 266.8H60.0508V281H57.7908ZM81.7545 277.34C81.7545 277.913 81.6345 278.427 81.3945 278.88C81.1679 279.333 80.8545 279.72 80.4545 280.04C80.0679 280.347 79.6079 280.587 79.0745 280.76C78.5412 280.92 77.9745 281 77.3745 281H70.5945V266.8H77.9145C78.4079 266.8 78.8545 266.907 79.2545 267.12C79.6545 267.333 79.9945 267.613 80.2745 267.96C80.5545 268.293 80.7679 268.68 80.9145 269.12C81.0745 269.547 81.1545 269.98 81.1545 270.42C81.1545 271.113 80.9745 271.767 80.6145 272.38C80.2679 272.98 79.7679 273.427 79.1145 273.72C79.9279 273.96 80.5679 274.4 81.0345 275.04C81.5145 275.667 81.7545 276.433 81.7545 277.34ZM79.4545 276.92C79.4545 276.627 79.4012 276.347 79.2945 276.08C79.2012 275.813 79.0679 275.58 78.8945 275.38C78.7345 275.18 78.5345 275.02 78.2945 274.9C78.0545 274.78 77.7945 274.72 77.5145 274.72H72.8345V279.06H77.3745C77.6679 279.06 77.9412 279.007 78.1945 278.9C78.4479 278.78 78.6679 278.627 78.8545 278.44C79.0412 278.24 79.1879 278.013 79.2945 277.76C79.4012 277.493 79.4545 277.213 79.4545 276.92ZM72.8345 268.74V272.92H76.9545C77.2345 272.92 77.4879 272.867 77.7145 272.76C77.9545 272.653 78.1612 272.513 78.3345 272.34C78.5212 272.153 78.6612 271.933 78.7545 271.68C78.8612 271.427 78.9145 271.147 78.9145 270.84C78.9145 270.227 78.7412 269.727 78.3945 269.34C78.0479 268.94 77.6079 268.74 77.0745 268.74H72.8345ZM85.2906 281V266.8H91.4706C92.1106 266.8 92.6973 266.933 93.2306 267.2C93.7773 267.467 94.244 267.82 94.6306 268.26C95.0173 268.687 95.3173 269.18 95.5306 269.74C95.7573 270.287 95.8706 270.847 95.8706 271.42C95.8706 271.9 95.804 272.36 95.6706 272.8C95.5373 273.24 95.3506 273.647 95.1106 274.02C94.8706 274.393 94.5773 274.72 94.2306 275C93.884 275.267 93.504 275.467 93.0906 275.6L96.4306 281H93.8906L90.8106 276.06H87.5306V281H85.2906ZM87.5306 274.08H91.4506C91.7706 274.08 92.0573 274.013 92.3106 273.88C92.5773 273.733 92.804 273.54 92.9906 273.3C93.1773 273.047 93.324 272.76 93.4306 272.44C93.5373 272.12 93.5906 271.78 93.5906 271.42C93.5906 271.06 93.524 270.72 93.3906 270.4C93.2706 270.08 93.104 269.8 92.8906 269.56C92.6906 269.32 92.4506 269.133 92.1706 269C91.904 268.853 91.624 268.78 91.3306 268.78H87.5306V274.08ZM109.453 279.02V281H99.7133V266.8H109.273V268.78H101.953V272.82H108.293V274.68H101.953V279.02H109.453ZM113.864 266.8L118.144 278.18L122.404 266.8H124.784L119.104 281H117.184L111.484 266.8H113.864ZM137.459 279.02V281H127.719V266.8H137.279V268.78H129.959V272.82H136.299V274.68H129.959V279.02H137.459ZM141.11 275.94V266.66H143.31V275.94H141.11ZM141.11 281V278.26H143.31V281H141.11Z" fill="#E55D69"/>
</svg>
