<svg width="297" height="211" viewBox="0 0 297 211" fill="none" xmlns="http://www.w3.org/2000/svg">
<path d="M3.06 201C2.86 201 2.69 200.93 2.55 200.79C2.41 200.65 2.34 200.48 2.34 200.28V180.75C2.34 180.53 2.4 180.35 2.52 180.21C2.66 180.07 2.84 180 3.06 180H16.26C16.48 180 16.66 180.07 16.8 180.21C16.94 180.35 17.01 180.53 17.01 180.75V182.73C17.01 182.95 16.94 183.13 16.8 183.27C16.66 183.39 16.48 183.45 16.26 183.45H6.39V188.76H15.6C15.82 188.76 16 188.83 16.14 188.97C16.28 189.09 16.35 189.26 16.35 189.48V191.34C16.35 191.56 16.28 191.74 16.14 191.88C16 192 15.82 192.06 15.6 192.06H6.39V197.55H16.5C16.72 197.55 16.9 197.62 17.04 197.76C17.18 197.9 17.25 198.08 17.25 198.3V200.28C17.25 200.5 17.18 200.68 17.04 200.82C16.9 200.94 16.72 201 16.5 201H3.06ZM22.2621 201C22.0621 201 21.8921 200.93 21.7521 200.79C21.6121 200.65 21.5421 200.48 21.5421 200.28V186.12C21.5421 185.92 21.6121 185.75 21.7521 185.61C21.8921 185.47 22.0621 185.4 22.2621 185.4H24.6021C24.8021 185.4 24.9721 185.47 25.1121 185.61C25.2521 185.75 25.3221 185.92 25.3221 186.12V187.14C26.3621 185.78 27.8121 185.1 29.6721 185.1C31.8921 185.1 33.4421 185.99 34.3221 187.77C34.8021 186.97 35.4821 186.33 36.3621 185.85C37.2421 185.35 38.1921 185.1 39.2121 185.1C40.8521 185.1 42.1921 185.66 43.2321 186.78C44.2721 187.9 44.7921 189.53 44.7921 191.67V200.28C44.7921 200.48 44.7221 200.65 44.5821 200.79C44.4621 200.93 44.2921 201 44.0721 201H41.6121C41.4121 201 41.2421 200.93 41.1021 200.79C40.9621 200.65 40.8921 200.48 40.8921 200.28V191.91C40.8921 190.65 40.6221 189.74 40.0821 189.18C39.5621 188.6 38.8621 188.31 37.9821 188.31C37.2021 188.31 36.5321 188.6 35.9721 189.18C35.4321 189.76 35.1621 190.67 35.1621 191.91V200.28C35.1621 200.48 35.0921 200.65 34.9521 200.79C34.8121 200.93 34.6421 201 34.4421 201H31.9821C31.7821 201 31.6121 200.93 31.4721 200.79C31.3321 200.65 31.2621 200.48 31.2621 200.28V191.91C31.2621 190.65 30.9821 189.74 30.4221 189.18C29.8821 188.6 29.1921 188.31 28.3521 188.31C27.5521 188.31 26.8721 188.6 26.3121 189.18C25.7721 189.76 25.5021 190.67 25.5021 191.91V200.28C25.5021 200.48 25.4321 200.65 25.2921 200.79C25.1521 200.93 24.9821 201 24.7821 201H22.2621ZM50.2624 206.7C50.0624 206.7 49.8924 206.63 49.7524 206.49C49.6124 206.37 49.5424 206.2 49.5424 205.98V186.12C49.5424 185.9 49.6124 185.73 49.7524 185.61C49.8924 185.47 50.0624 185.4 50.2624 185.4H52.6324C52.8524 185.4 53.0224 185.47 53.1424 185.61C53.2824 185.73 53.3524 185.9 53.3524 186.12V187.32C54.4724 185.84 56.0724 185.1 58.1524 185.1C60.1724 185.1 61.7224 185.74 62.8024 187.02C63.8824 188.28 64.4624 189.99 64.5424 192.15C64.5624 192.39 64.5724 192.74 64.5724 193.2C64.5724 193.68 64.5624 194.04 64.5424 194.28C64.4624 196.38 63.8824 198.08 62.8024 199.38C61.7224 200.66 60.1724 201.3 58.1524 201.3C56.1324 201.3 54.5924 200.59 53.5324 199.17V205.98C53.5324 206.2 53.4624 206.37 53.3224 206.49C53.2024 206.63 53.0324 206.7 52.8124 206.7H50.2624ZM57.0424 198.09C59.2024 198.09 60.3524 196.76 60.4924 194.1C60.5124 193.9 60.5224 193.6 60.5224 193.2C60.5224 192.8 60.5124 192.5 60.4924 192.3C60.3524 189.64 59.2024 188.31 57.0424 188.31C55.8824 188.31 55.0224 188.68 54.4624 189.42C53.9024 190.16 53.5924 191.07 53.5324 192.15L53.5024 193.29L53.5324 194.46C53.5724 195.46 53.8824 196.32 54.4624 197.04C55.0624 197.74 55.9224 198.09 57.0424 198.09ZM69.5602 201C69.3602 201 69.1902 200.93 69.0502 200.79C68.9102 200.65 68.8402 200.48 68.8402 200.28V186.15C68.8402 185.95 68.9102 185.78 69.0502 185.64C69.1902 185.48 69.3602 185.4 69.5602 185.4H71.9902C72.2102 185.4 72.3902 185.47 72.5302 185.61C72.6702 185.75 72.7402 185.93 72.7402 186.15V187.38C73.2202 186.74 73.8202 186.25 74.5402 185.91C75.2802 185.57 76.1202 185.4 77.0602 185.4H78.2902C78.5102 185.4 78.6802 185.47 78.8002 185.61C78.9402 185.73 79.0102 185.9 79.0102 186.12V188.28C79.0102 188.48 78.9402 188.65 78.8002 188.79C78.6802 188.93 78.5102 189 78.2902 189H75.9502C75.0102 189 74.2702 189.27 73.7302 189.81C73.1902 190.35 72.9202 191.09 72.9202 192.03V200.28C72.9202 200.48 72.8502 200.65 72.7102 200.79C72.5702 200.93 72.3902 201 72.1702 201H69.5602ZM88.7648 201.3C86.5448 201.3 84.7748 200.66 83.4548 199.38C82.1548 198.08 81.4648 196.26 81.3848 193.92L81.3548 193.17L81.3848 192.42C81.4848 190.14 82.1848 188.35 83.4848 187.05C84.8048 185.75 86.5648 185.1 88.7648 185.1C91.1248 185.1 92.9448 185.82 94.2248 187.26C95.5248 188.7 96.1748 190.62 96.1748 193.02V193.65C96.1748 193.85 96.1048 194.02 95.9648 194.16C95.8248 194.3 95.6448 194.37 95.4248 194.37H85.4648V194.61C85.5048 195.71 85.8048 196.64 86.3648 197.4C86.9448 198.14 87.7348 198.51 88.7348 198.51C89.9148 198.51 90.8648 198.05 91.5848 197.13C91.7648 196.91 91.9048 196.77 92.0048 196.71C92.1248 196.65 92.2948 196.62 92.5148 196.62H95.0948C95.2748 196.62 95.4248 196.68 95.5448 196.8C95.6848 196.9 95.7548 197.03 95.7548 197.19C95.7548 197.67 95.4648 198.24 94.8848 198.9C94.3248 199.54 93.5148 200.1 92.4548 200.58C91.3948 201.06 90.1648 201.3 88.7648 201.3ZM92.0948 191.85V191.76C92.0948 190.58 91.7948 189.63 91.1948 188.91C90.6148 188.19 89.8048 187.83 88.7648 187.83C87.7248 187.83 86.9148 188.19 86.3348 188.91C85.7548 189.63 85.4648 190.58 85.4648 191.76V191.85H92.0948ZM106.979 201.3C104.759 201.3 102.989 200.66 101.669 199.38C100.369 198.08 99.6793 196.26 99.5993 193.92L99.5693 193.17L99.5993 192.42C99.6993 190.14 100.399 188.35 101.699 187.05C103.019 185.75 104.779 185.1 106.979 185.1C109.339 185.1 111.159 185.82 112.439 187.26C113.739 188.7 114.389 190.62 114.389 193.02V193.65C114.389 193.85 114.319 194.02 114.179 194.16C114.039 194.3 113.859 194.37 113.639 194.37H103.679V194.61C103.719 195.71 104.019 196.64 104.579 197.4C105.159 198.14 105.949 198.51 106.949 198.51C108.129 198.51 109.079 198.05 109.799 197.13C109.979 196.91 110.119 196.77 110.219 196.71C110.339 196.65 110.509 196.62 110.729 196.62H113.309C113.489 196.62 113.639 196.68 113.759 196.8C113.899 196.9 113.969 197.03 113.969 197.19C113.969 197.67 113.679 198.24 113.099 198.9C112.539 199.54 111.729 200.1 110.669 200.58C109.609 201.06 108.379 201.3 106.979 201.3ZM110.309 191.85V191.76C110.309 190.58 110.009 189.63 109.409 188.91C108.829 188.19 108.019 187.83 106.979 187.83C105.939 187.83 105.129 188.19 104.549 188.91C103.969 189.63 103.679 190.58 103.679 191.76V191.85H110.309ZM119.194 201C118.994 201 118.824 200.93 118.684 200.79C118.544 200.65 118.474 200.48 118.474 200.28V186.12C118.474 185.92 118.544 185.75 118.684 185.61C118.824 185.47 118.994 185.4 119.194 185.4H121.654C121.854 185.4 122.024 185.47 122.164 185.61C122.304 185.75 122.374 185.92 122.374 186.12V187.35C123.554 185.85 125.224 185.1 127.384 185.1C129.224 185.1 130.684 185.71 131.764 186.93C132.844 188.13 133.384 189.77 133.384 191.85V200.28C133.384 200.48 133.314 200.65 133.174 200.79C133.054 200.93 132.884 201 132.664 201H130.024C129.824 201 129.654 200.93 129.514 200.79C129.374 200.65 129.304 200.48 129.304 200.28V192.03C129.304 190.85 129.014 189.94 128.434 189.3C127.874 188.64 127.054 188.31 125.974 188.31C124.914 188.31 124.074 188.64 123.454 189.3C122.854 189.96 122.554 190.87 122.554 192.03V200.28C122.554 200.48 122.484 200.65 122.344 200.79C122.224 200.93 122.054 201 121.834 201H119.194ZM143.884 201.3C141.864 201.3 140.314 200.65 139.234 199.35C138.154 198.05 137.574 196.32 137.494 194.16L137.464 193.17L137.494 192.21C137.554 190.11 138.124 188.4 139.204 187.08C140.304 185.76 141.864 185.1 143.884 185.1C145.824 185.1 147.364 185.76 148.504 187.08V180.42C148.504 180.2 148.574 180.03 148.714 179.91C148.854 179.77 149.024 179.7 149.224 179.7H151.774C151.994 179.7 152.164 179.77 152.284 179.91C152.424 180.03 152.494 180.2 152.494 180.42V200.28C152.494 200.48 152.424 200.65 152.284 200.79C152.164 200.93 151.994 201 151.774 201H149.404C149.204 201 149.034 200.93 148.894 200.79C148.754 200.65 148.684 200.48 148.684 200.28V199.17C147.544 200.59 145.944 201.3 143.884 201.3ZM144.994 198.09C146.154 198.09 147.014 197.72 147.574 196.98C148.134 196.24 148.444 195.33 148.504 194.25C148.524 194.01 148.534 193.62 148.534 193.08C148.534 192.56 148.524 192.18 148.504 191.94C148.464 190.94 148.144 190.09 147.544 189.39C146.964 188.67 146.114 188.31 144.994 188.31C142.834 188.31 141.684 189.64 141.544 192.3L141.514 193.2L141.544 194.1C141.684 196.76 142.834 198.09 144.994 198.09ZM164.113 201.3C161.893 201.3 160.123 200.66 158.803 199.38C157.503 198.08 156.813 196.26 156.733 193.92L156.703 193.17L156.733 192.42C156.833 190.14 157.533 188.35 158.833 187.05C160.153 185.75 161.913 185.1 164.113 185.1C166.473 185.1 168.293 185.82 169.573 187.26C170.873 188.7 171.523 190.62 171.523 193.02V193.65C171.523 193.85 171.453 194.02 171.313 194.16C171.173 194.3 170.993 194.37 170.773 194.37H160.813V194.61C160.853 195.71 161.153 196.64 161.713 197.4C162.293 198.14 163.083 198.51 164.083 198.51C165.263 198.51 166.213 198.05 166.933 197.13C167.113 196.91 167.253 196.77 167.353 196.71C167.473 196.65 167.643 196.62 167.863 196.62H170.443C170.623 196.62 170.773 196.68 170.893 196.8C171.033 196.9 171.103 197.03 171.103 197.19C171.103 197.67 170.813 198.24 170.233 198.9C169.673 199.54 168.863 200.1 167.803 200.58C166.743 201.06 165.513 201.3 164.113 201.3ZM167.443 191.85V191.76C167.443 190.58 167.143 189.63 166.543 188.91C165.963 188.19 165.153 187.83 164.113 187.83C163.073 187.83 162.263 188.19 161.683 188.91C161.103 189.63 160.813 190.58 160.813 191.76V191.85H167.443ZM181.397 201.3C179.377 201.3 177.827 200.65 176.747 199.35C175.667 198.05 175.087 196.32 175.007 194.16L174.977 193.17L175.007 192.21C175.067 190.11 175.637 188.4 176.717 187.08C177.817 185.76 179.377 185.1 181.397 185.1C183.337 185.1 184.877 185.76 186.017 187.08V180.42C186.017 180.2 186.087 180.03 186.227 179.91C186.367 179.77 186.537 179.7 186.737 179.7H189.287C189.507 179.7 189.677 179.77 189.797 179.91C189.937 180.03 190.007 180.2 190.007 180.42V200.28C190.007 200.48 189.937 200.65 189.797 200.79C189.677 200.93 189.507 201 189.287 201H186.917C186.717 201 186.547 200.93 186.407 200.79C186.267 200.65 186.197 200.48 186.197 200.28V199.17C185.057 200.59 183.457 201.3 181.397 201.3ZM182.507 198.09C183.667 198.09 184.527 197.72 185.087 196.98C185.647 196.24 185.957 195.33 186.017 194.25C186.037 194.01 186.047 193.62 186.047 193.08C186.047 192.56 186.037 192.18 186.017 191.94C185.977 190.94 185.657 190.09 185.057 189.39C184.477 188.67 183.627 188.31 182.507 188.31C180.347 188.31 179.197 189.64 179.057 192.3L179.027 193.2L179.057 194.1C179.197 196.76 180.347 198.09 182.507 198.09ZM201.806 201.3C199.466 201.3 197.656 200.7 196.376 199.5C195.096 198.28 194.406 196.62 194.306 194.52L194.276 193.2L194.306 191.88C194.406 189.8 195.106 188.15 196.406 186.93C197.706 185.71 199.506 185.1 201.806 185.1C204.106 185.1 205.906 185.71 207.206 186.93C208.506 188.15 209.206 189.8 209.306 191.88C209.326 192.12 209.336 192.56 209.336 193.2C209.336 193.84 209.326 194.28 209.306 194.52C209.206 196.62 208.516 198.28 207.236 199.5C205.956 200.7 204.146 201.3 201.806 201.3ZM201.806 198.33C202.866 198.33 203.686 198 204.266 197.34C204.846 196.66 205.166 195.67 205.226 194.37C205.246 194.17 205.256 193.78 205.256 193.2C205.256 192.62 205.246 192.23 205.226 192.03C205.166 190.73 204.846 189.75 204.266 189.09C203.686 188.41 202.866 188.07 201.806 188.07C200.746 188.07 199.926 188.41 199.346 189.09C198.766 189.75 198.446 190.73 198.386 192.03L198.356 193.2L198.386 194.37C198.446 195.67 198.766 196.66 199.346 197.34C199.926 198 200.746 198.33 201.806 198.33ZM214.28 201C214.08 201 213.91 200.93 213.77 200.79C213.63 200.65 213.56 200.48 213.56 200.28V186.15C213.56 185.95 213.63 185.78 213.77 185.64C213.91 185.48 214.08 185.4 214.28 185.4H216.71C216.93 185.4 217.11 185.47 217.25 185.61C217.39 185.75 217.46 185.93 217.46 186.15V187.38C217.94 186.74 218.54 186.25 219.26 185.91C220 185.57 220.84 185.4 221.78 185.4H223.01C223.23 185.4 223.4 185.47 223.52 185.61C223.66 185.73 223.73 185.9 223.73 186.12V188.28C223.73 188.48 223.66 188.65 223.52 188.79C223.4 188.93 223.23 189 223.01 189H220.67C219.73 189 218.99 189.27 218.45 189.81C217.91 190.35 217.64 191.09 217.64 192.03V200.28C217.64 200.48 217.57 200.65 217.43 200.79C217.29 200.93 217.11 201 216.89 201H214.28ZM227.569 182.82C227.369 182.82 227.199 182.75 227.059 182.61C226.919 182.47 226.849 182.3 226.849 182.1V179.94C226.849 179.74 226.919 179.57 227.059 179.43C227.199 179.29 227.369 179.22 227.569 179.22H230.299C230.499 179.22 230.669 179.29 230.809 179.43C230.969 179.57 231.049 179.74 231.049 179.94V182.1C231.049 182.3 230.979 182.47 230.839 182.61C230.699 182.75 230.519 182.82 230.299 182.82H227.569ZM227.689 201C227.489 201 227.319 200.93 227.179 200.79C227.039 200.65 226.969 200.48 226.969 200.28V186.12C226.969 185.92 227.039 185.75 227.179 185.61C227.319 185.47 227.489 185.4 227.689 185.4H230.179C230.399 185.4 230.569 185.47 230.689 185.61C230.829 185.73 230.899 185.9 230.899 186.12V200.28C230.899 200.48 230.829 200.65 230.689 200.79C230.569 200.93 230.399 201 230.179 201H227.689ZM241.69 201.3C240.19 201.3 238.93 201.08 237.91 200.64C236.89 200.18 236.13 199.65 235.63 199.05C235.15 198.43 234.91 197.9 234.91 197.46C234.91 197.26 234.98 197.1 235.12 196.98C235.26 196.86 235.42 196.8 235.6 196.8H237.97C238.15 196.8 238.3 196.87 238.42 197.01C238.5 197.07 238.71 197.25 239.05 197.55C239.39 197.87 239.79 198.12 240.25 198.3C240.71 198.48 241.22 198.57 241.78 198.57C242.58 198.57 243.24 198.41 243.76 198.09C244.28 197.77 244.54 197.33 244.54 196.77C244.54 196.35 244.42 196.01 244.18 195.75C243.96 195.49 243.55 195.26 242.95 195.06C242.35 194.84 241.46 194.61 240.28 194.37C238.58 194.01 237.32 193.46 236.5 192.72C235.7 191.98 235.3 191 235.3 189.78C235.3 188.98 235.54 188.23 236.02 187.53C236.5 186.81 237.21 186.23 238.15 185.79C239.11 185.33 240.25 185.1 241.57 185.1C242.91 185.1 244.07 185.32 245.05 185.76C246.03 186.18 246.77 186.69 247.27 187.29C247.79 187.87 248.05 188.39 248.05 188.85C248.05 189.03 247.98 189.19 247.84 189.33C247.72 189.45 247.57 189.51 247.39 189.51H245.17C245.01 189.51 244.84 189.44 244.66 189.3C244.52 189.2 244.3 189.01 244 188.73C243.7 188.45 243.35 188.23 242.95 188.07C242.55 187.91 242.08 187.83 241.54 187.83C240.8 187.83 240.22 187.99 239.8 188.31C239.4 188.63 239.2 189.05 239.2 189.57C239.2 189.95 239.3 190.26 239.5 190.5C239.7 190.74 240.09 190.97 240.67 191.19C241.25 191.41 242.12 191.63 243.28 191.85C245.2 192.23 246.57 192.82 247.39 193.62C248.23 194.42 248.65 195.4 248.65 196.56C248.65 197.96 248.04 199.1 246.82 199.98C245.6 200.86 243.89 201.3 241.69 201.3ZM253.366 201C253.166 201 252.996 200.93 252.856 200.79C252.716 200.65 252.646 200.48 252.646 200.28V186.12C252.646 185.92 252.716 185.75 252.856 185.61C252.996 185.47 253.166 185.4 253.366 185.4H255.706C255.906 185.4 256.076 185.47 256.216 185.61C256.356 185.75 256.426 185.92 256.426 186.12V187.14C257.466 185.78 258.916 185.1 260.776 185.1C262.996 185.1 264.546 185.99 265.426 187.77C265.906 186.97 266.586 186.33 267.466 185.85C268.346 185.35 269.296 185.1 270.316 185.1C271.956 185.1 273.296 185.66 274.336 186.78C275.376 187.9 275.896 189.53 275.896 191.67V200.28C275.896 200.48 275.826 200.65 275.686 200.79C275.566 200.93 275.396 201 275.176 201H272.716C272.516 201 272.346 200.93 272.206 200.79C272.066 200.65 271.996 200.48 271.996 200.28V191.91C271.996 190.65 271.726 189.74 271.186 189.18C270.666 188.6 269.966 188.31 269.086 188.31C268.306 188.31 267.636 188.6 267.076 189.18C266.536 189.76 266.266 190.67 266.266 191.91V200.28C266.266 200.48 266.196 200.65 266.056 200.79C265.916 200.93 265.746 201 265.546 201H263.086C262.886 201 262.716 200.93 262.576 200.79C262.436 200.65 262.366 200.48 262.366 200.28V191.91C262.366 190.65 262.086 189.74 261.526 189.18C260.986 188.6 260.296 188.31 259.456 188.31C258.656 188.31 257.976 188.6 257.416 189.18C256.876 189.76 256.606 190.67 256.606 191.91V200.28C256.606 200.48 256.536 200.65 256.396 200.79C256.256 200.93 256.086 201 255.886 201H253.366ZM287.517 201.3C285.177 201.3 283.367 200.7 282.087 199.5C280.807 198.28 280.117 196.62 280.017 194.52L279.987 193.2L280.017 191.88C280.117 189.8 280.817 188.15 282.117 186.93C283.417 185.71 285.217 185.1 287.517 185.1C289.817 185.1 291.617 185.71 292.917 186.93C294.217 188.15 294.917 189.8 295.017 191.88C295.037 192.12 295.047 192.56 295.047 193.2C295.047 193.84 295.037 194.28 295.017 194.52C294.917 196.62 294.227 198.28 292.947 199.5C291.667 200.7 289.857 201.3 287.517 201.3ZM287.517 198.33C288.577 198.33 289.397 198 289.977 197.34C290.557 196.66 290.877 195.67 290.937 194.37C290.957 194.17 290.967 193.78 290.967 193.2C290.967 192.62 290.957 192.23 290.937 192.03C290.877 190.73 290.557 189.75 289.977 189.09C289.397 188.41 288.577 188.07 287.517 188.07C286.457 188.07 285.637 188.41 285.057 189.09C284.477 189.75 284.157 190.73 284.097 192.03L284.067 193.2L284.097 194.37C284.157 195.67 284.477 196.66 285.057 197.34C285.637 198 286.457 198.33 287.517 198.33Z" fill="#333333"/>
<circle opacity="0.2" cx="157" cy="72" r="72" fill="#F2C94C" fill-opacity="0.8"/>
<g clip-path="url(#clip0)">
<path d="M135.5 133H120.5C117 133 113 130 113 124V113.5C113 108.5 110.5 104 106.5 100.5C97.5 93.5 93 83.5 93 72.5C93.5 53.5 109 38.5 127.5 38C137 38 146 41.5 152.5 48C159 54.5 163 63.5 163 73C163 83.5 158.5 93.5 150 100C145.5 103.5 143 109 143 114V125.5C143 129.5 139.5 133 135.5 133ZM128 43C112 43 98.5 56.5 98 72.5C98 82 102 91 109.5 96.5C115 101 118 107 118 113.5V124C118 125 118 128 120.5 128H135.5C137 128 138 127 138 125.5V114C138 107.5 141.5 100.5 147 96C154 90.5 158 82 158 73C158 65 155 57.5 149 51.5C143.5 46 136 43 128 43Z" fill="black"/>
<path d="M140.5 118H115.5C114 118 113 117 113 115.5C113 114 114 113 115.5 113H140.5C142 113 143 114 143 115.5C143 117 142 118 140.5 118Z" fill="black"/>
<path d="M128 28C126.5 28 125.5 27 125.5 25.5V15.5C125.5 14 126.5 13 128 13C129.5 13 130.5 14 130.5 15.5V25.5C130.5 27 129.5 28 128 28Z" fill="black"/>
<path d="M161.5 42C161 42 160 42 159.5 41.5C158.5 40.5 158.5 39 159.5 38L166.5 31C167.5 30 169 30 170 31C171 32 171 33.5 170 34.5L163 41.5C163 41.5 162 42 161.5 42Z" fill="black"/>
<path d="M185.5 75.5H175.5C174 75.5 173 74.5 173 73C173 71.5 174 70.5 175.5 70.5H185.5C187 70.5 188 71.5 188 73C188 74.5 187 75.5 185.5 75.5Z" fill="black"/>
<path d="M168.5 116C168 116 167 116 166.5 115.5L159.5 108.5C158.5 107.5 158.5 106 159.5 105C160.5 104 162 104 163 105L170 112C171 113 171 114.5 170 115.5C170 116 169.5 116 168.5 116Z" fill="black"/>
<path d="M87.5 116C87 116 86 116 85.5 115.5C84.5 114.5 84.5 113 85.5 112L92.5 105C93.5 104 95 104 96 105C97 106 97 107.5 96 108.5L89 115.5C88.5 116 88 116 87.5 116Z" fill="black"/>
<path d="M80.5 75.5H70.5C69 75.5 68 74.5 68 73C68 71.5 69 70.5 70.5 70.5H80.5C82 70.5 83 71.5 83 73C83 74.5 82 75.5 80.5 75.5Z" fill="black"/>
<path d="M94.5 42C94 42 93 42 92.5 41.5L85.5 34C84.5 33 84.5 31.5 85.5 30.5C86.5 29.5 88 29.5 89 30.5L96 37.5C97 38.5 97 40 96 41C95.5 41.5 95 42 94.5 42Z" fill="black"/>
<path d="M148 75.5C146.5 75.5 145.5 74.5 145.5 73C145.5 63.5 137.5 55.5 128 55.5C126.5 55.5 125.5 54.5 125.5 53C125.5 51.5 126.5 50.5 128 50.5C140.5 50.5 150.5 60.5 150.5 73C150.5 74.5 149.5 75.5 148 75.5Z" fill="black"/>
</g>
<defs>
<clipPath id="clip0">
<rect x="68" y="13" width="120" height="120" fill="white"/>
</clipPath>
</defs>
</svg>
