<svg width="155" height="252" viewBox="0 0 155 252" fill="none" xmlns="http://www.w3.org/2000/svg">
<path d="M19.06 201C18.86 201 18.69 200.93 18.55 200.79C18.41 200.65 18.34 200.48 18.34 200.28V180.72C18.34 180.5 18.41 180.33 18.55 180.21C18.69 180.07 18.86 180 19.06 180H21.88C22.1 180 22.27 180.07 22.39 180.21C22.53 180.33 22.6 180.5 22.6 180.72V200.28C22.6 200.48 22.53 200.65 22.39 200.79C22.27 200.93 22.1 201 21.88 201H19.06ZM33.6348 201.3C31.6148 201.3 30.0648 200.65 28.9848 199.35C27.9048 198.05 27.3248 196.32 27.2448 194.16L27.2148 193.17L27.2448 192.21C27.3048 190.11 27.8748 188.4 28.9548 187.08C30.0548 185.76 31.6148 185.1 33.6348 185.1C35.5748 185.1 37.1148 185.76 38.2548 187.08V180.42C38.2548 180.2 38.3248 180.03 38.4648 179.91C38.6048 179.77 38.7748 179.7 38.9748 179.7H41.5248C41.7448 179.7 41.9148 179.77 42.0348 179.91C42.1748 180.03 42.2448 180.2 42.2448 180.42V200.28C42.2448 200.48 42.1748 200.65 42.0348 200.79C41.9148 200.93 41.7448 201 41.5248 201H39.1548C38.9548 201 38.7848 200.93 38.6448 200.79C38.5048 200.65 38.4348 200.48 38.4348 200.28V199.17C37.2948 200.59 35.6948 201.3 33.6348 201.3ZM34.7448 198.09C35.9048 198.09 36.7648 197.72 37.3248 196.98C37.8848 196.24 38.1948 195.33 38.2548 194.25C38.2748 194.01 38.2848 193.62 38.2848 193.08C38.2848 192.56 38.2748 192.18 38.2548 191.94C38.2148 190.94 37.8948 190.09 37.2948 189.39C36.7148 188.67 35.8648 188.31 34.7448 188.31C32.5848 188.31 31.4348 189.64 31.2948 192.3L31.2648 193.2L31.2948 194.1C31.4348 196.76 32.5848 198.09 34.7448 198.09ZM47.7433 182.82C47.5433 182.82 47.3733 182.75 47.2333 182.61C47.0933 182.47 47.0233 182.3 47.0233 182.1V179.94C47.0233 179.74 47.0933 179.57 47.2333 179.43C47.3733 179.29 47.5433 179.22 47.7433 179.22H50.4733C50.6733 179.22 50.8433 179.29 50.9833 179.43C51.1433 179.57 51.2233 179.74 51.2233 179.94V182.1C51.2233 182.3 51.1533 182.47 51.0133 182.61C50.8733 182.75 50.6933 182.82 50.4733 182.82H47.7433ZM47.8633 201C47.6633 201 47.4933 200.93 47.3533 200.79C47.2133 200.65 47.1433 200.48 47.1433 200.28V186.12C47.1433 185.92 47.2133 185.75 47.3533 185.61C47.4933 185.47 47.6633 185.4 47.8633 185.4H50.3533C50.5733 185.4 50.7433 185.47 50.8633 185.61C51.0033 185.73 51.0733 185.9 51.0733 186.12V200.28C51.0733 200.48 51.0033 200.65 50.8633 200.79C50.7433 200.93 50.5733 201 50.3533 201H47.8633ZM62.8534 201.3C60.5134 201.3 58.7034 200.7 57.4234 199.5C56.1434 198.28 55.4534 196.62 55.3534 194.52L55.3234 193.2L55.3534 191.88C55.4534 189.8 56.1534 188.15 57.4534 186.93C58.7534 185.71 60.5534 185.1 62.8534 185.1C65.1534 185.1 66.9534 185.71 68.2534 186.93C69.5534 188.15 70.2534 189.8 70.3534 191.88C70.3734 192.12 70.3834 192.56 70.3834 193.2C70.3834 193.84 70.3734 194.28 70.3534 194.52C70.2534 196.62 69.5634 198.28 68.2834 199.5C67.0034 200.7 65.1934 201.3 62.8534 201.3ZM62.8534 198.33C63.9134 198.33 64.7334 198 65.3134 197.34C65.8934 196.66 66.2134 195.67 66.2734 194.37C66.2934 194.17 66.3034 193.78 66.3034 193.2C66.3034 192.62 66.2934 192.23 66.2734 192.03C66.2134 190.73 65.8934 189.75 65.3134 189.09C64.7334 188.41 63.9134 188.07 62.8534 188.07C61.7934 188.07 60.9734 188.41 60.3934 189.09C59.8134 189.75 59.4934 190.73 59.4334 192.03L59.4034 193.2L59.4334 194.37C59.4934 195.67 59.8134 196.66 60.3934 197.34C60.9734 198 61.7934 198.33 62.8534 198.33ZM75.3273 201C75.1273 201 74.9573 200.93 74.8173 200.79C74.6773 200.65 74.6073 200.48 74.6073 200.28V186.12C74.6073 185.92 74.6773 185.75 74.8173 185.61C74.9573 185.47 75.1273 185.4 75.3273 185.4H77.6673C77.8673 185.4 78.0373 185.47 78.1773 185.61C78.3173 185.75 78.3873 185.92 78.3873 186.12V187.14C79.4273 185.78 80.8773 185.1 82.7373 185.1C84.9573 185.1 86.5073 185.99 87.3873 187.77C87.8673 186.97 88.5473 186.33 89.4273 185.85C90.3073 185.35 91.2573 185.1 92.2773 185.1C93.9173 185.1 95.2573 185.66 96.2973 186.78C97.3373 187.9 97.8573 189.53 97.8573 191.67V200.28C97.8573 200.48 97.7873 200.65 97.6473 200.79C97.5273 200.93 97.3573 201 97.1373 201H94.6773C94.4773 201 94.3073 200.93 94.1673 200.79C94.0273 200.65 93.9573 200.48 93.9573 200.28V191.91C93.9573 190.65 93.6873 189.74 93.1473 189.18C92.6273 188.6 91.9273 188.31 91.0473 188.31C90.2673 188.31 89.5973 188.6 89.0373 189.18C88.4973 189.76 88.2273 190.67 88.2273 191.91V200.28C88.2273 200.48 88.1573 200.65 88.0173 200.79C87.8773 200.93 87.7073 201 87.5073 201H85.0473C84.8473 201 84.6773 200.93 84.5373 200.79C84.3973 200.65 84.3273 200.48 84.3273 200.28V191.91C84.3273 190.65 84.0473 189.74 83.4873 189.18C82.9473 188.6 82.2573 188.31 81.4173 188.31C80.6173 188.31 79.9373 188.6 79.3773 189.18C78.8373 189.76 78.5673 190.67 78.5673 191.91V200.28C78.5673 200.48 78.4973 200.65 78.3573 200.79C78.2173 200.93 78.0473 201 77.8473 201H75.3273ZM107.108 201.3C106.088 201.3 105.148 201.1 104.288 200.7C103.448 200.28 102.778 199.72 102.278 199.02C101.798 198.32 101.558 197.55 101.558 196.71C101.558 195.35 102.108 194.25 103.208 193.41C104.308 192.57 105.818 192 107.738 191.7L111.848 191.1V190.47C111.848 189.59 111.628 188.93 111.188 188.49C110.748 188.05 110.038 187.83 109.058 187.83C108.398 187.83 107.858 187.96 107.438 188.22C107.038 188.46 106.718 188.7 106.478 188.94C106.238 189.2 106.078 189.37 105.998 189.45C105.918 189.69 105.768 189.81 105.548 189.81H103.238C103.058 189.81 102.898 189.75 102.758 189.63C102.638 189.51 102.578 189.35 102.578 189.15C102.598 188.65 102.838 188.08 103.298 187.44C103.778 186.8 104.508 186.25 105.488 185.79C106.468 185.33 107.668 185.1 109.088 185.1C111.448 185.1 113.168 185.63 114.248 186.69C115.328 187.75 115.868 189.14 115.868 190.86V200.28C115.868 200.48 115.798 200.65 115.658 200.79C115.538 200.93 115.368 201 115.148 201H112.718C112.518 201 112.348 200.93 112.208 200.79C112.068 200.65 111.998 200.48 111.998 200.28V199.11C111.558 199.75 110.928 200.28 110.108 200.7C109.308 201.1 108.308 201.3 107.108 201.3ZM108.128 198.45C109.228 198.45 110.128 198.09 110.828 197.37C111.528 196.65 111.878 195.6 111.878 194.22V193.59L108.878 194.07C107.718 194.25 106.838 194.54 106.238 194.94C105.658 195.34 105.368 195.83 105.368 196.41C105.368 197.05 105.638 197.55 106.178 197.91C106.718 198.27 107.368 198.45 108.128 198.45ZM126.526 201.3C125.026 201.3 123.766 201.08 122.746 200.64C121.726 200.18 120.966 199.65 120.466 199.05C119.986 198.43 119.746 197.9 119.746 197.46C119.746 197.26 119.816 197.1 119.956 196.98C120.096 196.86 120.256 196.8 120.436 196.8H122.806C122.986 196.8 123.136 196.87 123.256 197.01C123.336 197.07 123.546 197.25 123.886 197.55C124.226 197.87 124.626 198.12 125.086 198.3C125.546 198.48 126.056 198.57 126.616 198.57C127.416 198.57 128.076 198.41 128.596 198.09C129.116 197.77 129.376 197.33 129.376 196.77C129.376 196.35 129.256 196.01 129.016 195.75C128.796 195.49 128.386 195.26 127.786 195.06C127.186 194.84 126.296 194.61 125.116 194.37C123.416 194.01 122.156 193.46 121.336 192.72C120.536 191.98 120.136 191 120.136 189.78C120.136 188.98 120.376 188.23 120.856 187.53C121.336 186.81 122.046 186.23 122.986 185.79C123.946 185.33 125.086 185.1 126.406 185.1C127.746 185.1 128.906 185.32 129.886 185.76C130.866 186.18 131.606 186.69 132.106 187.29C132.626 187.87 132.886 188.39 132.886 188.85C132.886 189.03 132.816 189.19 132.676 189.33C132.556 189.45 132.406 189.51 132.226 189.51H130.006C129.846 189.51 129.676 189.44 129.496 189.3C129.356 189.2 129.136 189.01 128.836 188.73C128.536 188.45 128.186 188.23 127.786 188.07C127.386 187.91 126.916 187.83 126.376 187.83C125.636 187.83 125.056 187.99 124.636 188.31C124.236 188.63 124.036 189.05 124.036 189.57C124.036 189.95 124.136 190.26 124.336 190.5C124.536 190.74 124.926 190.97 125.506 191.19C126.086 191.41 126.956 191.63 128.116 191.85C130.036 192.23 131.406 192.82 132.226 193.62C133.066 194.42 133.486 195.4 133.486 196.56C133.486 197.96 132.876 199.1 131.656 199.98C130.436 200.86 128.726 201.3 126.526 201.3Z" fill="#333333"/>
<circle opacity="0.2" cx="72" cy="72" r="72" fill="#F2C94C" fill-opacity="0.8"/>
<path d="M43.3916 117.769C43.7349 116.506 42.9762 114.749 42.2522 113.483C42.0267 113.105 41.7822 112.739 41.5195 112.387C35.3097 102.969 31.9999 91.9363 32.0003 80.6558C31.8993 48.276 58.7493 22 91.9511 22C120.907 22 145.077 42.0596 150.725 68.6875C151.571 72.6354 151.999 76.6615 152 80.699C152 113.125 126.186 139.813 92.9838 139.813C87.705 139.813 80.58 138.487 76.6944 137.399C72.8088 136.312 68.929 134.869 67.9281 134.483C66.9044 134.089 65.8171 133.887 64.7204 133.886C63.5225 133.881 62.336 134.119 61.2329 134.587L41.6666 141.648C41.2379 141.833 40.7837 141.951 40.3195 142C39.9531 141.999 39.5906 141.925 39.253 141.783C38.9154 141.641 38.6093 141.433 38.3526 141.172C38.0958 140.91 37.8934 140.601 37.7572 140.261C37.621 139.92 37.5536 139.557 37.5589 139.19C37.583 138.869 37.641 138.551 37.732 138.241L43.3916 117.769Z" stroke="#393636" stroke-width="6" stroke-miterlimit="10" stroke-linecap="round"/>
<path d="M27.34 237.02V239H17.6V224.8H27.16V226.78H19.84V230.82H26.18V232.68H19.84V237.02H27.34ZM42.7908 239V228.78L38.5708 236.52H37.3308L33.0908 228.78V239H30.8508V224.8H33.2508L37.9508 233.48L42.6508 224.8H45.0508V239H42.7908ZM66.7545 235.34C66.7545 235.913 66.6345 236.427 66.3945 236.88C66.1679 237.333 65.8545 237.72 65.4545 238.04C65.0679 238.347 64.6079 238.587 64.0745 238.76C63.5412 238.92 62.9745 239 62.3745 239H55.5945V224.8H62.9145C63.4079 224.8 63.8545 224.907 64.2545 225.12C64.6545 225.333 64.9945 225.613 65.2745 225.96C65.5545 226.293 65.7679 226.68 65.9145 227.12C66.0745 227.547 66.1545 227.98 66.1545 228.42C66.1545 229.113 65.9745 229.767 65.6145 230.38C65.2679 230.98 64.7679 231.427 64.1145 231.72C64.9279 231.96 65.5679 232.4 66.0345 233.04C66.5145 233.667 66.7545 234.433 66.7545 235.34ZM64.4545 234.92C64.4545 234.627 64.4012 234.347 64.2945 234.08C64.2012 233.813 64.0679 233.58 63.8945 233.38C63.7345 233.18 63.5345 233.02 63.2945 232.9C63.0545 232.78 62.7945 232.72 62.5145 232.72H57.8345V237.06H62.3745C62.6679 237.06 62.9412 237.007 63.1945 236.9C63.4479 236.78 63.6679 236.627 63.8545 236.44C64.0412 236.24 64.1879 236.013 64.2945 235.76C64.4012 235.493 64.4545 235.213 64.4545 234.92ZM57.8345 226.74V230.92H61.9545C62.2345 230.92 62.4879 230.867 62.7145 230.76C62.9545 230.653 63.1612 230.513 63.3345 230.34C63.5212 230.153 63.6612 229.933 63.7545 229.68C63.8612 229.427 63.9145 229.147 63.9145 228.84C63.9145 228.227 63.7412 227.727 63.3945 227.34C63.0479 226.94 62.6079 226.74 62.0745 226.74H57.8345ZM70.2906 239V224.8H76.4706C77.1106 224.8 77.6973 224.933 78.2306 225.2C78.7773 225.467 79.244 225.82 79.6306 226.26C80.0173 226.687 80.3173 227.18 80.5306 227.74C80.7573 228.287 80.8706 228.847 80.8706 229.42C80.8706 229.9 80.804 230.36 80.6706 230.8C80.5373 231.24 80.3506 231.647 80.1106 232.02C79.8706 232.393 79.5773 232.72 79.2306 233C78.884 233.267 78.504 233.467 78.0906 233.6L81.4306 239H78.8906L75.8106 234.06H72.5306V239H70.2906ZM72.5306 232.08H76.4506C76.7706 232.08 77.0573 232.013 77.3106 231.88C77.5773 231.733 77.804 231.54 77.9906 231.3C78.1773 231.047 78.324 230.76 78.4306 230.44C78.5373 230.12 78.5906 229.78 78.5906 229.42C78.5906 229.06 78.524 228.72 78.3906 228.4C78.2706 228.08 78.104 227.8 77.8906 227.56C77.6906 227.32 77.4506 227.133 77.1706 227C76.904 226.853 76.624 226.78 76.3306 226.78H72.5306V232.08ZM94.4533 237.02V239H84.7133V224.8H94.2733V226.78H86.9533V230.82H93.2933V232.68H86.9533V237.02H94.4533ZM98.8641 224.8L103.144 236.18L107.404 224.8H109.784L104.104 239H102.184L96.4841 224.8H98.8641ZM122.459 237.02V239H112.719V224.8H122.279V226.78H114.959V230.82H121.299V232.68H114.959V237.02H122.459ZM126.11 233.94V224.66H128.31V233.94H126.11ZM126.11 239V236.26H128.31V239H126.11Z" fill="#E55D69"/>
</svg>
