<svg width="181" height="294" viewBox="0 0 181 294" fill="none" xmlns="http://www.w3.org/2000/svg">
<circle opacity="0.2" cx="100" cy="72" r="72" fill="#F2C94C" fill-opacity="0.8"/>
<g clip-path="url(#clip0)">
<path d="M115.518 86.6519C116.718 85.0259 117.972 83.3459 119.098 81.5739C122.256 76.6698 123.956 70.9691 124 65.1359C124.118 59.4042 123.413 53.6853 121.906 48.1539C119.885 41.2785 115.69 35.2434 109.95 30.9539C98.6598 22.1059 88.1058 18.4379 75.7718 19.0679C69.2644 19.5174 62.7986 20.4412 56.4258 21.8319C47.3998 23.6479 40.8498 26.8199 36.3878 31.5279C32.8524 35.2946 30.1221 39.7425 28.3638 44.5999C27.6204 46.737 27.0145 48.9195 26.5498 51.1339L26.3878 51.8319C25.9663 53.3903 25.3978 54.9051 24.6898 56.3559C24.2758 57.2819 23.8638 58.2059 23.5058 59.1559C23.0421 60.2122 22.8569 61.3697 22.9678 62.5179C23.3742 64.3048 24.4099 65.8857 25.8858 66.9719C26.8678 67.8719 27.5118 68.5019 27.5178 69.0779C27.4403 69.3765 27.3225 69.6631 27.1678 69.9299C24.7726 74.9788 21.8375 79.7533 18.4138 84.1699C16.9778 85.9239 15.4718 87.9699 15.7778 90.0499C16.2138 91.627 17.2554 92.9677 18.6758 93.7799C19.3371 94.2363 20.0348 94.6377 20.7618 94.9799C21.6238 95.4199 23.0698 96.1559 23.1618 96.6839C23.291 97.3574 23.2151 98.0541 22.9438 98.6839C22.6458 99.3079 22.3438 99.8499 22.0738 100.318C21.2898 101.702 20.1118 103.79 21.9618 105.348C22.3938 105.73 23.1318 106.31 23.8078 106.826C23.3082 107.706 23.0839 108.715 23.1638 109.724C23.2728 110.506 23.6988 111.209 24.3418 111.668C24.7898 111.986 25.2678 112.268 25.7418 112.532C26.9178 113.204 27.3758 113.516 27.5418 114.132C27.6483 114.946 27.5746 115.774 27.3258 116.556C27.2098 117.082 27.0978 117.606 27.0278 118.13C26.8261 119.949 27.0556 121.79 27.6978 123.504C28.732 127.305 32.5626 129.63 36.4118 128.792C42.1225 127.415 47.7547 125.73 53.2838 123.746C57.7798 126.4 60.6218 134.436 61.3618 137.45C61.581 138.344 62.3827 138.974 63.3038 138.974L113.504 138.836C114.137 138.834 114.732 138.532 115.108 138.023C115.483 137.513 115.595 136.855 115.41 136.25C114.915 134.885 114.229 133.597 113.372 132.424C112.899 131.745 112.471 131.037 112.092 130.302C111.192 128.457 110.436 126.544 109.832 124.582C108.69 120.719 107.901 116.76 107.476 112.754C106.767 106.773 107.67 100.712 110.092 95.1979C111.573 92.1538 113.393 89.287 115.518 86.6519ZM103.502 113.252C103.952 117.498 104.788 121.694 106 125.788C106.663 127.943 107.492 130.044 108.48 132.072C108.935 132.967 109.451 133.829 110.024 134.654C110.07 134.726 110.118 134.798 110.166 134.87L64.8158 135C63.4848 130.254 61.0716 125.882 57.7658 122.226L59.2458 121.708C60.7438 121.182 61.8738 120.786 62.4458 120.608C71.0198 117.916 75.3078 114.02 75.1918 109.026C75.1668 107.939 74.2786 107.072 73.1918 107.072H73.1398C72.0359 107.098 71.1621 108.014 71.1878 109.118C71.2358 111.178 69.5498 114.182 61.2398 116.79C60.6398 116.976 59.4758 117.39 57.9238 117.93C56.4918 118.432 54.7238 119.05 52.7958 119.71H52.7838C47.1533 121.748 41.417 123.48 35.5998 124.9C33.728 125.254 31.9093 124.072 31.4718 122.218C31.04 121.094 30.875 119.886 30.9898 118.688C31.0438 118.272 31.1378 117.858 31.2298 117.444C31.6401 116.056 31.7047 114.589 31.4178 113.17C30.8436 111.334 29.4968 109.839 27.7298 109.078C27.5878 108.998 27.4438 108.916 27.3018 108.832C27.5159 108.395 27.7725 107.979 28.0678 107.592C28.4005 107.167 28.5474 106.626 28.4751 106.091C28.4027 105.556 28.1174 105.073 27.6838 104.752C27.2038 104.396 26.0598 103.552 25.2398 102.884C25.3398 102.698 25.4558 102.484 25.5598 102.308C25.8678 101.766 26.2198 101.14 26.5598 100.422C27.2002 99.0243 27.3883 97.4616 27.0978 95.9519C26.6318 93.4979 24.2978 92.3019 22.5758 91.4299C21.9961 91.1551 21.4402 90.8327 20.9138 90.4659C20.4981 90.1775 20.1043 89.8586 19.7358 89.5119C19.7358 89.2119 20.0538 88.4799 21.5938 86.6019C25.168 81.9949 28.2319 77.0138 30.7318 71.7459C31.2131 70.9213 31.4824 69.9902 31.5158 69.0359C31.3103 67.0233 30.2413 65.1989 28.5858 64.0359C27.7858 63.2959 27.0138 62.5959 26.9278 61.9839C26.9353 61.5 27.0443 61.0231 27.2478 60.5839C27.5758 59.7139 27.9578 58.8639 28.3398 58.0119C29.1554 56.3289 29.8058 54.5706 30.2818 52.7619L30.4458 52.0579C30.8731 50.0071 31.4309 47.9857 32.1158 46.0059C33.6849 41.6497 36.1267 37.6595 39.2918 34.2799C43.1658 30.1999 49.0298 27.3999 57.2138 25.7519C63.3943 24.4016 69.6648 23.5026 75.9758 23.0619C87.2918 22.4939 96.9998 25.8899 107.478 34.1059C112.567 37.8571 116.282 43.1767 118.052 49.2459C119.455 54.4029 120.111 59.7346 120 65.0779C119.964 70.1722 118.481 75.1513 115.722 79.4339C114.68 81.0799 113.476 82.6999 112.322 84.2659C110.012 87.1511 108.038 90.29 106.438 93.6219C103.727 99.7893 102.713 106.569 103.502 113.26V113.252Z" fill="black"/>
<path d="M112.341 77.288C114.699 73.6289 115.968 69.3748 115.999 65.022C116.105 60.0671 115.499 55.1227 114.199 50.34C112.654 45.0931 109.429 40.4986 105.019 37.262C95.2594 29.604 86.5634 26.534 76.1754 27.062C70.0616 27.4925 63.987 28.3654 57.9994 29.674C50.7514 31.134 45.4334 33.608 42.1994 37.032C39.4079 40.0148 37.2546 43.536 35.8714 47.38C35.2574 49.044 34.2914 53.192 34.1694 53.716C33.7194 55.952 32.6034 63.622 37.1414 68.434C40.0194 71.484 44.4174 72.614 50.2094 71.796L52.8994 71.412C57.8665 70.4992 62.9051 70.0307 67.9554 70.012C67.9714 70.012 67.9854 70.022 68.0034 70.022C68.0214 70.022 68.0274 70.022 68.0414 70.022C71.6711 70.0556 75.1434 71.5086 77.7154 74.07C82.8834 79.124 88.6114 84.726 97.5674 84.726C99.8543 84.7069 102.128 84.3793 104.327 83.752C107.608 82.4868 110.41 80.2264 112.341 77.288ZM69.9994 66.2V65C69.9994 63.8954 69.104 63 67.9994 63C66.8948 63 65.9994 63.8954 65.9994 65V66C64.7354 66.018 63.3994 66.102 61.9994 66.226V63C61.9994 58.5817 65.5811 55 69.9994 55H81.9994C86.4177 55 89.9994 58.5817 89.9994 63V78.81C88.5867 78.0534 87.2476 77.1669 85.9994 76.162V65C85.9994 63.8954 85.104 63 83.9994 63C82.8948 63 81.9994 63.8954 81.9994 65V72.638C81.5094 72.172 81.0134 71.696 80.5094 71.202C77.6938 68.3639 73.9776 66.5952 69.9994 66.2ZM69.9994 45C69.9994 41.6863 72.6857 39 75.9994 39C79.3131 39 81.9994 41.6863 81.9994 45C81.9994 48.3137 79.3131 51 75.9994 51C72.6857 51 69.9994 48.3137 69.9994 45ZM103.261 79.886C100.26 80.812 97.0731 80.9593 93.9994 80.314V63C93.9921 57.0817 89.671 52.0525 83.8214 51.154C85.2217 49.4076 85.9894 47.2384 85.9994 45C85.9994 39.4771 81.5223 35 75.9994 35C70.4766 35 65.9994 39.4771 65.9994 45C66.0094 47.2384 66.7771 49.4076 68.1774 51.154C62.3278 52.0525 58.0067 57.0817 57.9994 63V66.674C56.1994 66.904 54.3474 67.162 52.3274 67.452L49.6454 67.834C45.2074 68.466 41.9814 67.74 40.0454 65.69C37.4874 62.976 37.3574 58.134 38.0754 54.562C38.3534 53.362 39.1734 49.976 39.6194 48.762C40.8167 45.4265 42.6805 42.3698 45.0974 39.778C47.7614 36.97 52.3714 34.89 58.7994 33.6C64.5909 32.3313 70.466 31.4798 76.3794 31.052C85.7794 30.576 93.4794 33.292 102.553 40.412C106.289 43.1333 109.029 47.0044 110.353 51.432C111.547 55.8414 112.101 60.3991 111.999 64.966C111.977 68.58 110.924 72.1126 108.965 75.15C107.563 77.2477 105.581 78.8929 103.261 79.886Z" fill="black"/>
</g>
<path d="M3.48793 198C3.28793 198 3.11793 197.93 2.97793 197.79C2.83793 197.65 2.76793 197.48 2.76793 197.28V177.72C2.76793 177.5 2.83793 177.33 2.97793 177.21C3.11793 177.07 3.28793 177 3.48793 177H6.30793C6.52793 177 6.69793 177.07 6.81793 177.21C6.95793 177.33 7.02793 177.5 7.02793 177.72V197.28C7.02793 197.48 6.95793 197.65 6.81793 197.79C6.69793 197.93 6.52793 198 6.30793 198H3.48793ZM12.9928 198C12.7928 198 12.6228 197.93 12.4828 197.79C12.3428 197.65 12.2728 197.48 12.2728 197.28V183.12C12.2728 182.92 12.3428 182.75 12.4828 182.61C12.6228 182.47 12.7928 182.4 12.9928 182.4H15.4528C15.6528 182.4 15.8228 182.47 15.9628 182.61C16.1028 182.75 16.1728 182.92 16.1728 183.12V184.35C17.3528 182.85 19.0228 182.1 21.1828 182.1C23.0228 182.1 24.4828 182.71 25.5628 183.93C26.6428 185.13 27.1828 186.77 27.1828 188.85V197.28C27.1828 197.48 27.1128 197.65 26.9728 197.79C26.8528 197.93 26.6828 198 26.4628 198H23.8228C23.6228 198 23.4528 197.93 23.3128 197.79C23.1728 197.65 23.1028 197.48 23.1028 197.28V189.03C23.1028 187.85 22.8128 186.94 22.2328 186.3C21.6728 185.64 20.8528 185.31 19.7728 185.31C18.7128 185.31 17.8728 185.64 17.2528 186.3C16.6528 186.96 16.3528 187.87 16.3528 189.03V197.28C16.3528 197.48 16.2828 197.65 16.1428 197.79C16.0228 197.93 15.8528 198 15.6328 198H12.9928ZM38.7677 198C36.9477 198 35.5777 197.53 34.6577 196.59C33.7577 195.63 33.3077 194.23 33.3077 192.39V185.58H30.9377C30.7377 185.58 30.5677 185.51 30.4277 185.37C30.2877 185.21 30.2177 185.03 30.2177 184.83V183.12C30.2177 182.92 30.2877 182.75 30.4277 182.61C30.5677 182.47 30.7377 182.4 30.9377 182.4H33.3077V177.42C33.3077 177.2 33.3777 177.03 33.5177 176.91C33.6577 176.77 33.8277 176.7 34.0277 176.7H36.4577C36.6777 176.7 36.8477 176.77 36.9677 176.91C37.1077 177.03 37.1777 177.2 37.1777 177.42V182.4H40.9277C41.1477 182.4 41.3177 182.47 41.4377 182.61C41.5777 182.73 41.6477 182.9 41.6477 183.12V184.83C41.6477 185.05 41.5777 185.23 41.4377 185.37C41.2977 185.51 41.1277 185.58 40.9277 185.58H37.1777V192.09C37.1777 192.95 37.3277 193.6 37.6277 194.04C37.9277 194.48 38.4277 194.7 39.1277 194.7H41.1977C41.3977 194.7 41.5677 194.77 41.7077 194.91C41.8477 195.05 41.9177 195.22 41.9177 195.42V197.28C41.9177 197.48 41.8477 197.65 41.7077 197.79C41.5877 197.93 41.4177 198 41.1977 198H38.7677ZM52.199 198.3C49.979 198.3 48.209 197.66 46.889 196.38C45.589 195.08 44.899 193.26 44.819 190.92L44.789 190.17L44.819 189.42C44.919 187.14 45.619 185.35 46.919 184.05C48.239 182.75 49.999 182.1 52.199 182.1C54.559 182.1 56.379 182.82 57.659 184.26C58.959 185.7 59.609 187.62 59.609 190.02V190.65C59.609 190.85 59.539 191.02 59.399 191.16C59.259 191.3 59.079 191.37 58.859 191.37H48.899V191.61C48.939 192.71 49.239 193.64 49.799 194.4C50.379 195.14 51.169 195.51 52.169 195.51C53.349 195.51 54.299 195.05 55.019 194.13C55.199 193.91 55.339 193.77 55.439 193.71C55.559 193.65 55.729 193.62 55.949 193.62H58.529C58.709 193.62 58.859 193.68 58.979 193.8C59.119 193.9 59.189 194.03 59.189 194.19C59.189 194.67 58.899 195.24 58.319 195.9C57.759 196.54 56.949 197.1 55.889 197.58C54.829 198.06 53.599 198.3 52.199 198.3ZM55.529 188.85V188.76C55.529 187.58 55.229 186.63 54.629 185.91C54.049 185.19 53.239 184.83 52.199 184.83C51.159 184.83 50.349 185.19 49.769 185.91C49.189 186.63 48.899 187.58 48.899 188.76V188.85H55.529ZM64.4435 198C64.2435 198 64.0735 197.93 63.9335 197.79C63.7935 197.65 63.7235 197.48 63.7235 197.28V177.42C63.7235 177.2 63.7935 177.03 63.9335 176.91C64.0735 176.77 64.2435 176.7 64.4435 176.7H66.9335C67.1535 176.7 67.3235 176.77 67.4435 176.91C67.5835 177.03 67.6535 177.2 67.6535 177.42V197.28C67.6535 197.48 67.5835 197.65 67.4435 197.79C67.3235 197.93 67.1535 198 66.9335 198H64.4435ZM73.1329 179.82C72.9329 179.82 72.7629 179.75 72.6229 179.61C72.4829 179.47 72.4129 179.3 72.4129 179.1V176.94C72.4129 176.74 72.4829 176.57 72.6229 176.43C72.7629 176.29 72.9329 176.22 73.1329 176.22H75.8629C76.0629 176.22 76.2329 176.29 76.3729 176.43C76.5329 176.57 76.6129 176.74 76.6129 176.94V179.1C76.6129 179.3 76.5429 179.47 76.4029 179.61C76.2629 179.75 76.0829 179.82 75.8629 179.82H73.1329ZM73.2529 198C73.0529 198 72.8829 197.93 72.7429 197.79C72.6029 197.65 72.5329 197.48 72.5329 197.28V183.12C72.5329 182.92 72.6029 182.75 72.7429 182.61C72.8829 182.47 73.0529 182.4 73.2529 182.4H75.7429C75.9629 182.4 76.1329 182.47 76.2529 182.61C76.3929 182.73 76.4629 182.9 76.4629 183.12V197.28C76.4629 197.48 76.3929 197.65 76.2529 197.79C76.1329 197.93 75.9629 198 75.7429 198H73.2529ZM88.3931 204.6C86.6131 204.6 85.1731 204.3 84.0731 203.7C82.9731 203.12 82.1931 202.45 81.7331 201.69C81.2731 200.93 81.0431 200.28 81.0431 199.74C81.0431 199.56 81.1131 199.4 81.2531 199.26C81.4131 199.12 81.5831 199.05 81.7631 199.05H84.3731C84.5531 199.05 84.7031 199.09 84.8231 199.17C84.9631 199.27 85.0731 199.44 85.1531 199.68C85.3531 200.22 85.6731 200.67 86.1131 201.03C86.5731 201.41 87.2831 201.6 88.2431 201.6C89.4431 201.6 90.3231 201.33 90.8831 200.79C91.4631 200.25 91.7531 199.32 91.7531 198V195.96C90.6531 197.26 89.1131 197.91 87.1331 197.91C85.0531 197.91 83.4831 197.27 82.4231 195.99C81.3831 194.71 80.8231 192.99 80.7431 190.83L80.7131 190.02L80.7431 189.21C80.8231 187.09 81.3931 185.38 82.4531 184.08C83.5131 182.76 85.0731 182.1 87.1331 182.1C88.1931 182.1 89.1231 182.3 89.9231 182.7C90.7231 183.1 91.3931 183.65 91.9331 184.35V183.15C91.9331 182.93 92.0031 182.75 92.1431 182.61C92.2831 182.47 92.4531 182.4 92.6531 182.4H95.0831C95.2831 182.4 95.4531 182.48 95.5931 182.64C95.7331 182.78 95.8031 182.95 95.8031 183.15L95.8331 197.61C95.8331 199.83 95.2131 201.55 93.9731 202.77C92.7331 203.99 90.8731 204.6 88.3931 204.6ZM88.2431 194.73C89.3831 194.73 90.2331 194.37 90.7931 193.65C91.3731 192.93 91.6931 192.05 91.7531 191.01C91.7731 190.85 91.7831 190.52 91.7831 190.02C91.7831 189.54 91.7731 189.22 91.7531 189.06C91.6931 188 91.3731 187.11 90.7931 186.39C90.2331 185.67 89.3831 185.31 88.2431 185.31C86.0831 185.31 84.9431 186.64 84.8231 189.3L84.7931 190.02C84.7931 191.44 85.0431 192.58 85.5431 193.44C86.0631 194.3 86.9631 194.73 88.2431 194.73ZM107.449 198.3C105.229 198.3 103.459 197.66 102.139 196.38C100.839 195.08 100.149 193.26 100.069 190.92L100.039 190.17L100.069 189.42C100.169 187.14 100.869 185.35 102.169 184.05C103.489 182.75 105.249 182.1 107.449 182.1C109.809 182.1 111.629 182.82 112.909 184.26C114.209 185.7 114.859 187.62 114.859 190.02V190.65C114.859 190.85 114.789 191.02 114.649 191.16C114.509 191.3 114.329 191.37 114.109 191.37H104.149V191.61C104.189 192.71 104.489 193.64 105.049 194.4C105.629 195.14 106.419 195.51 107.419 195.51C108.599 195.51 109.549 195.05 110.269 194.13C110.449 193.91 110.589 193.77 110.689 193.71C110.809 193.65 110.979 193.62 111.199 193.62H113.779C113.959 193.62 114.109 193.68 114.229 193.8C114.369 193.9 114.439 194.03 114.439 194.19C114.439 194.67 114.149 195.24 113.569 195.9C113.009 196.54 112.199 197.1 111.139 197.58C110.079 198.06 108.849 198.3 107.449 198.3ZM110.779 188.85V188.76C110.779 187.58 110.479 186.63 109.879 185.91C109.299 185.19 108.489 184.83 107.449 184.83C106.409 184.83 105.599 185.19 105.019 185.91C104.439 186.63 104.149 187.58 104.149 188.76V188.85H110.779ZM102.859 180.15C102.559 180.15 102.409 180.02 102.409 179.76C102.409 179.6 102.499 179.43 102.679 179.25L105.589 176.25C105.789 176.05 105.959 175.92 106.099 175.86C106.239 175.8 106.409 175.77 106.609 175.77H108.259C108.459 175.77 108.629 175.8 108.769 175.86C108.909 175.92 109.079 176.05 109.279 176.25L112.189 179.25C112.369 179.43 112.459 179.6 112.459 179.76C112.459 180.02 112.309 180.15 112.009 180.15H110.929C110.549 180.15 110.229 180.08 109.969 179.94L107.449 178.35L104.899 179.94C104.639 180.08 104.329 180.15 103.969 180.15H102.859ZM119.664 198C119.464 198 119.294 197.93 119.154 197.79C119.014 197.65 118.944 197.48 118.944 197.28V183.12C118.944 182.92 119.014 182.75 119.154 182.61C119.294 182.47 119.464 182.4 119.664 182.4H122.124C122.324 182.4 122.494 182.47 122.634 182.61C122.774 182.75 122.844 182.92 122.844 183.12V184.35C124.024 182.85 125.694 182.1 127.854 182.1C129.694 182.1 131.154 182.71 132.234 183.93C133.314 185.13 133.854 186.77 133.854 188.85V197.28C133.854 197.48 133.784 197.65 133.644 197.79C133.524 197.93 133.354 198 133.134 198H130.494C130.294 198 130.124 197.93 129.984 197.79C129.844 197.65 129.774 197.48 129.774 197.28V189.03C129.774 187.85 129.484 186.94 128.904 186.3C128.344 185.64 127.524 185.31 126.444 185.31C125.384 185.31 124.544 185.64 123.924 186.3C123.324 186.96 123.024 187.87 123.024 189.03V197.28C123.024 197.48 122.954 197.65 122.814 197.79C122.694 197.93 122.524 198 122.304 198H119.664ZM145.315 198.3C143.115 198.3 141.355 197.69 140.035 196.47C138.735 195.25 138.045 193.56 137.965 191.4L137.935 190.2L137.965 189C138.045 186.84 138.735 185.15 140.035 183.93C141.355 182.71 143.115 182.1 145.315 182.1C146.875 182.1 148.195 182.38 149.275 182.94C150.375 183.5 151.185 184.19 151.705 185.01C152.245 185.81 152.535 186.57 152.575 187.29C152.595 187.49 152.525 187.66 152.365 187.8C152.225 187.94 152.055 188.01 151.855 188.01H149.215C149.015 188.01 148.855 187.97 148.735 187.89C148.635 187.79 148.535 187.63 148.435 187.41C148.135 186.63 147.735 186.07 147.235 185.73C146.755 185.39 146.135 185.22 145.375 185.22C144.355 185.22 143.555 185.55 142.975 186.21C142.395 186.85 142.085 187.83 142.045 189.15L142.015 190.26L142.045 191.25C142.125 193.87 143.235 195.18 145.375 195.18C146.155 195.18 146.785 195.01 147.265 194.67C147.745 194.33 148.135 193.77 148.435 192.99C148.535 192.77 148.635 192.62 148.735 192.54C148.855 192.44 149.015 192.39 149.215 192.39H151.855C152.055 192.39 152.225 192.46 152.365 192.6C152.525 192.74 152.595 192.91 152.575 193.11C152.535 193.81 152.255 194.56 151.735 195.36C151.215 196.16 150.415 196.85 149.335 197.43C148.255 198.01 146.915 198.3 145.315 198.3ZM157.203 179.82C157.003 179.82 156.833 179.75 156.693 179.61C156.553 179.47 156.483 179.3 156.483 179.1V176.94C156.483 176.74 156.553 176.57 156.693 176.43C156.833 176.29 157.003 176.22 157.203 176.22H159.933C160.133 176.22 160.303 176.29 160.443 176.43C160.603 176.57 160.683 176.74 160.683 176.94V179.1C160.683 179.3 160.613 179.47 160.473 179.61C160.333 179.75 160.153 179.82 159.933 179.82H157.203ZM157.323 198C157.123 198 156.953 197.93 156.813 197.79C156.673 197.65 156.603 197.48 156.603 197.28V183.12C156.603 182.92 156.673 182.75 156.813 182.61C156.953 182.47 157.123 182.4 157.323 182.4H159.813C160.033 182.4 160.203 182.47 160.323 182.61C160.463 182.73 160.533 182.9 160.533 183.12V197.28C160.533 197.48 160.463 197.65 160.323 197.79C160.203 197.93 160.033 198 159.813 198H157.323ZM169.943 198.3C168.923 198.3 167.983 198.1 167.123 197.7C166.283 197.28 165.613 196.72 165.113 196.02C164.633 195.32 164.393 194.55 164.393 193.71C164.393 192.35 164.943 191.25 166.043 190.41C167.143 189.57 168.653 189 170.573 188.7L174.683 188.1V187.47C174.683 186.59 174.463 185.93 174.023 185.49C173.583 185.05 172.873 184.83 171.893 184.83C171.233 184.83 170.693 184.96 170.273 185.22C169.873 185.46 169.553 185.7 169.313 185.94C169.073 186.2 168.913 186.37 168.833 186.45C168.753 186.69 168.603 186.81 168.383 186.81H166.073C165.893 186.81 165.733 186.75 165.593 186.63C165.473 186.51 165.413 186.35 165.413 186.15C165.433 185.65 165.673 185.08 166.133 184.44C166.613 183.8 167.343 183.25 168.323 182.79C169.303 182.33 170.503 182.1 171.923 182.1C174.283 182.1 176.003 182.63 177.083 183.69C178.163 184.75 178.703 186.14 178.703 187.86V197.28C178.703 197.48 178.633 197.65 178.493 197.79C178.373 197.93 178.203 198 177.983 198H175.553C175.353 198 175.183 197.93 175.043 197.79C174.903 197.65 174.833 197.48 174.833 197.28V196.11C174.393 196.75 173.763 197.28 172.943 197.7C172.143 198.1 171.143 198.3 169.943 198.3ZM170.963 195.45C172.063 195.45 172.963 195.09 173.663 194.37C174.363 193.65 174.713 192.6 174.713 191.22V190.59L171.713 191.07C170.553 191.25 169.673 191.54 169.073 191.94C168.493 192.34 168.203 192.83 168.203 193.41C168.203 194.05 168.473 194.55 169.013 194.91C169.553 195.27 170.203 195.45 170.963 195.45ZM21.2299 239.3C19.0099 239.3 17.2399 238.66 15.9199 237.38C14.6199 236.08 13.9299 234.26 13.8499 231.92L13.8199 231.17L13.8499 230.42C13.9499 228.14 14.6499 226.35 15.9499 225.05C17.2699 223.75 19.0299 223.1 21.2299 223.1C23.5899 223.1 25.4099 223.82 26.6899 225.26C27.9899 226.7 28.6399 228.62 28.6399 231.02V231.65C28.6399 231.85 28.5699 232.02 28.4299 232.16C28.2899 232.3 28.1099 232.37 27.8899 232.37H17.9299V232.61C17.9699 233.71 18.2699 234.64 18.8299 235.4C19.4099 236.14 20.1999 236.51 21.1999 236.51C22.3799 236.51 23.3299 236.05 24.0499 235.13C24.2299 234.91 24.3699 234.77 24.4699 234.71C24.5899 234.65 24.7599 234.62 24.9799 234.62H27.5599C27.7399 234.62 27.8899 234.68 28.0099 234.8C28.1499 234.9 28.2199 235.03 28.2199 235.19C28.2199 235.67 27.9299 236.24 27.3499 236.9C26.7899 237.54 25.9799 238.1 24.9199 238.58C23.8599 239.06 22.6299 239.3 21.2299 239.3ZM24.5599 229.85V229.76C24.5599 228.58 24.2599 227.63 23.6599 226.91C23.0799 226.19 22.2699 225.83 21.2299 225.83C20.1899 225.83 19.3799 226.19 18.7999 226.91C18.2199 227.63 17.9299 228.58 17.9299 229.76V229.85H24.5599ZM33.4443 239C33.2443 239 33.0743 238.93 32.9343 238.79C32.7943 238.65 32.7243 238.48 32.7243 238.28V224.12C32.7243 223.92 32.7943 223.75 32.9343 223.61C33.0743 223.47 33.2443 223.4 33.4443 223.4H35.7843C35.9843 223.4 36.1543 223.47 36.2943 223.61C36.4343 223.75 36.5043 223.92 36.5043 224.12V225.14C37.5443 223.78 38.9943 223.1 40.8543 223.1C43.0743 223.1 44.6243 223.99 45.5043 225.77C45.9843 224.97 46.6643 224.33 47.5443 223.85C48.4243 223.35 49.3743 223.1 50.3943 223.1C52.0343 223.1 53.3743 223.66 54.4143 224.78C55.4543 225.9 55.9743 227.53 55.9743 229.67V238.28C55.9743 238.48 55.9043 238.65 55.7643 238.79C55.6443 238.93 55.4743 239 55.2543 239H52.7943C52.5943 239 52.4243 238.93 52.2843 238.79C52.1443 238.65 52.0743 238.48 52.0743 238.28V229.91C52.0743 228.65 51.8043 227.74 51.2643 227.18C50.7443 226.6 50.0443 226.31 49.1643 226.31C48.3843 226.31 47.7143 226.6 47.1543 227.18C46.6143 227.76 46.3443 228.67 46.3443 229.91V238.28C46.3443 238.48 46.2743 238.65 46.1343 238.79C45.9943 238.93 45.8243 239 45.6243 239H43.1643C42.9643 239 42.7943 238.93 42.6543 238.79C42.5143 238.65 42.4443 238.48 42.4443 238.28V229.91C42.4443 228.65 42.1643 227.74 41.6043 227.18C41.0643 226.6 40.3743 226.31 39.5343 226.31C38.7343 226.31 38.0543 226.6 37.4943 227.18C36.9543 227.76 36.6843 228.67 36.6843 229.91V238.28C36.6843 238.48 36.6143 238.65 36.4743 238.79C36.3343 238.93 36.1643 239 35.9643 239H33.4443ZM67.5946 239.3C65.2546 239.3 63.4446 238.7 62.1646 237.5C60.8846 236.28 60.1946 234.62 60.0946 232.52L60.0646 231.2L60.0946 229.88C60.1946 227.8 60.8946 226.15 62.1946 224.93C63.4946 223.71 65.2946 223.1 67.5946 223.1C69.8946 223.1 71.6946 223.71 72.9946 224.93C74.2946 226.15 74.9946 227.8 75.0946 229.88C75.1147 230.12 75.1247 230.56 75.1247 231.2C75.1247 231.84 75.1147 232.28 75.0946 232.52C74.9946 234.62 74.3046 236.28 73.0247 237.5C71.7446 238.7 69.9346 239.3 67.5946 239.3ZM67.5946 236.33C68.6546 236.33 69.4746 236 70.0546 235.34C70.6346 234.66 70.9546 233.67 71.0146 232.37C71.0346 232.17 71.0446 231.78 71.0446 231.2C71.0446 230.62 71.0346 230.23 71.0146 230.03C70.9546 228.73 70.6346 227.75 70.0546 227.09C69.4746 226.41 68.6546 226.07 67.5946 226.07C66.5346 226.07 65.7146 226.41 65.1346 227.09C64.5546 227.75 64.2346 228.73 64.1746 230.03L64.1446 231.2L64.1746 232.37C64.2346 233.67 64.5546 234.66 65.1346 235.34C65.7146 236 66.5346 236.33 67.5946 236.33ZM86.0986 239.3C83.8986 239.3 82.1386 238.69 80.8186 237.47C79.5186 236.25 78.8286 234.56 78.7486 232.4L78.7186 231.2L78.7486 230C78.8286 227.84 79.5186 226.15 80.8186 224.93C82.1386 223.71 83.8986 223.1 86.0986 223.1C87.6586 223.1 88.9786 223.38 90.0586 223.94C91.1586 224.5 91.9686 225.19 92.4886 226.01C93.0286 226.81 93.3186 227.57 93.3586 228.29C93.3786 228.49 93.3086 228.66 93.1486 228.8C93.0086 228.94 92.8386 229.01 92.6386 229.01H89.9986C89.7986 229.01 89.6386 228.97 89.5186 228.89C89.4186 228.79 89.3186 228.63 89.2186 228.41C88.9186 227.63 88.5186 227.07 88.0186 226.73C87.5386 226.39 86.9186 226.22 86.1586 226.22C85.1386 226.22 84.3386 226.55 83.7586 227.21C83.1786 227.85 82.8686 228.83 82.8286 230.15L82.7986 231.26L82.8286 232.25C82.9086 234.87 84.0186 236.18 86.1586 236.18C86.9386 236.18 87.5686 236.01 88.0486 235.67C88.5286 235.33 88.9186 234.77 89.2186 233.99C89.3186 233.77 89.4186 233.62 89.5186 233.54C89.6386 233.44 89.7986 233.39 89.9986 233.39H92.6386C92.8386 233.39 93.0086 233.46 93.1486 233.6C93.3086 233.74 93.3786 233.91 93.3586 234.11C93.3186 234.81 93.0386 235.56 92.5186 236.36C91.9986 237.16 91.1986 237.85 90.1186 238.43C89.0386 239.01 87.6986 239.3 86.0986 239.3ZM97.9872 220.82C97.7872 220.82 97.6172 220.75 97.4772 220.61C97.3372 220.47 97.2672 220.3 97.2672 220.1V217.94C97.2672 217.74 97.3372 217.57 97.4772 217.43C97.6172 217.29 97.7872 217.22 97.9872 217.22H100.717C100.917 217.22 101.087 217.29 101.227 217.43C101.387 217.57 101.467 217.74 101.467 217.94V220.1C101.467 220.3 101.397 220.47 101.257 220.61C101.117 220.75 100.937 220.82 100.717 220.82H97.9872ZM98.1072 239C97.9072 239 97.7372 238.93 97.5972 238.79C97.4572 238.65 97.3872 238.48 97.3872 238.28V224.12C97.3872 223.92 97.4572 223.75 97.5972 223.61C97.7372 223.47 97.9072 223.4 98.1072 223.4H100.597C100.817 223.4 100.987 223.47 101.107 223.61C101.247 223.73 101.317 223.9 101.317 224.12V238.28C101.317 238.48 101.247 238.65 101.107 238.79C100.987 238.93 100.817 239 100.597 239H98.1072ZM113.097 239.3C110.757 239.3 108.947 238.7 107.667 237.5C106.387 236.28 105.697 234.62 105.597 232.52L105.567 231.2L105.597 229.88C105.697 227.8 106.397 226.15 107.697 224.93C108.997 223.71 110.797 223.1 113.097 223.1C115.397 223.1 117.197 223.71 118.497 224.93C119.797 226.15 120.497 227.8 120.597 229.88C120.617 230.12 120.627 230.56 120.627 231.2C120.627 231.84 120.617 232.28 120.597 232.52C120.497 234.62 119.807 236.28 118.527 237.5C117.247 238.7 115.437 239.3 113.097 239.3ZM113.097 236.33C114.157 236.33 114.977 236 115.557 235.34C116.137 234.66 116.457 233.67 116.517 232.37C116.537 232.17 116.547 231.78 116.547 231.2C116.547 230.62 116.537 230.23 116.517 230.03C116.457 228.73 116.137 227.75 115.557 227.09C114.977 226.41 114.157 226.07 113.097 226.07C112.037 226.07 111.217 226.41 110.637 227.09C110.057 227.75 109.737 228.73 109.677 230.03L109.647 231.2L109.677 232.37C109.737 233.67 110.057 234.66 110.637 235.34C111.217 236 112.037 236.33 113.097 236.33ZM125.571 239C125.371 239 125.201 238.93 125.061 238.79C124.921 238.65 124.851 238.48 124.851 238.28V224.12C124.851 223.92 124.921 223.75 125.061 223.61C125.201 223.47 125.371 223.4 125.571 223.4H128.031C128.231 223.4 128.401 223.47 128.541 223.61C128.681 223.75 128.751 223.92 128.751 224.12V225.35C129.931 223.85 131.601 223.1 133.761 223.1C135.601 223.1 137.061 223.71 138.141 224.93C139.221 226.13 139.761 227.77 139.761 229.85V238.28C139.761 238.48 139.691 238.65 139.551 238.79C139.431 238.93 139.261 239 139.041 239H136.401C136.201 239 136.031 238.93 135.891 238.79C135.751 238.65 135.681 238.48 135.681 238.28V230.03C135.681 228.85 135.391 227.94 134.811 227.3C134.251 226.64 133.431 226.31 132.351 226.31C131.291 226.31 130.451 226.64 129.831 227.3C129.231 227.96 128.931 228.87 128.931 230.03V238.28C128.931 238.48 128.861 238.65 128.721 238.79C128.601 238.93 128.431 239 128.211 239H125.571ZM149.002 239.3C147.982 239.3 147.042 239.1 146.182 238.7C145.342 238.28 144.672 237.72 144.172 237.02C143.692 236.32 143.452 235.55 143.452 234.71C143.452 233.35 144.002 232.25 145.102 231.41C146.202 230.57 147.712 230 149.632 229.7L153.742 229.1V228.47C153.742 227.59 153.522 226.93 153.082 226.49C152.642 226.05 151.932 225.83 150.952 225.83C150.292 225.83 149.752 225.96 149.332 226.22C148.932 226.46 148.612 226.7 148.372 226.94C148.132 227.2 147.972 227.37 147.892 227.45C147.812 227.69 147.662 227.81 147.442 227.81H145.132C144.952 227.81 144.792 227.75 144.652 227.63C144.532 227.51 144.472 227.35 144.472 227.15C144.492 226.65 144.732 226.08 145.192 225.44C145.672 224.8 146.402 224.25 147.382 223.79C148.362 223.33 149.562 223.1 150.982 223.1C153.342 223.1 155.062 223.63 156.142 224.69C157.222 225.75 157.762 227.14 157.762 228.86V238.28C157.762 238.48 157.692 238.65 157.552 238.79C157.432 238.93 157.262 239 157.042 239H154.612C154.412 239 154.242 238.93 154.102 238.79C153.962 238.65 153.892 238.48 153.892 238.28V237.11C153.452 237.75 152.822 238.28 152.002 238.7C151.202 239.1 150.202 239.3 149.002 239.3ZM150.022 236.45C151.122 236.45 152.022 236.09 152.722 235.37C153.422 234.65 153.772 233.6 153.772 232.22V231.59L150.772 232.07C149.612 232.25 148.732 232.54 148.132 232.94C147.552 233.34 147.262 233.83 147.262 234.41C147.262 235.05 147.532 235.55 148.072 235.91C148.612 236.27 149.262 236.45 150.022 236.45ZM163.261 239C163.061 239 162.891 238.93 162.751 238.79C162.611 238.65 162.541 238.48 162.541 238.28V218.42C162.541 218.2 162.611 218.03 162.751 217.91C162.891 217.77 163.061 217.7 163.261 217.7H165.751C165.971 217.7 166.141 217.77 166.261 217.91C166.401 218.03 166.471 218.2 166.471 218.42V238.28C166.471 238.48 166.401 238.65 166.261 238.79C166.141 238.93 165.971 239 165.751 239H163.261Z" fill="#333333"/>
<path d="M44.34 279.02V281H34.6V266.8H44.16V268.78H36.84V272.82H43.18V274.68H36.84V279.02H44.34ZM59.7908 281V270.78L55.5708 278.52H54.3308L50.0908 270.78V281H47.8508V266.8H50.2508L54.9508 275.48L59.6508 266.8H62.0508V281H59.7908ZM83.7545 277.34C83.7545 277.913 83.6345 278.427 83.3945 278.88C83.1679 279.333 82.8545 279.72 82.4545 280.04C82.0679 280.347 81.6079 280.587 81.0745 280.76C80.5412 280.92 79.9745 281 79.3745 281H72.5945V266.8H79.9145C80.4079 266.8 80.8545 266.907 81.2545 267.12C81.6545 267.333 81.9945 267.613 82.2745 267.96C82.5545 268.293 82.7679 268.68 82.9145 269.12C83.0745 269.547 83.1545 269.98 83.1545 270.42C83.1545 271.113 82.9745 271.767 82.6145 272.38C82.2679 272.98 81.7679 273.427 81.1145 273.72C81.9279 273.96 82.5679 274.4 83.0345 275.04C83.5145 275.667 83.7545 276.433 83.7545 277.34ZM81.4545 276.92C81.4545 276.627 81.4012 276.347 81.2945 276.08C81.2012 275.813 81.0679 275.58 80.8945 275.38C80.7345 275.18 80.5345 275.02 80.2945 274.9C80.0545 274.78 79.7945 274.72 79.5145 274.72H74.8345V279.06H79.3745C79.6679 279.06 79.9412 279.007 80.1945 278.9C80.4479 278.78 80.6679 278.627 80.8545 278.44C81.0412 278.24 81.1879 278.013 81.2945 277.76C81.4012 277.493 81.4545 277.213 81.4545 276.92ZM74.8345 268.74V272.92H78.9545C79.2345 272.92 79.4879 272.867 79.7145 272.76C79.9545 272.653 80.1612 272.513 80.3345 272.34C80.5212 272.153 80.6612 271.933 80.7545 271.68C80.8612 271.427 80.9145 271.147 80.9145 270.84C80.9145 270.227 80.7412 269.727 80.3945 269.34C80.0479 268.94 79.6079 268.74 79.0745 268.74H74.8345ZM87.2906 281V266.8H93.4706C94.1106 266.8 94.6973 266.933 95.2306 267.2C95.7773 267.467 96.244 267.82 96.6306 268.26C97.0173 268.687 97.3173 269.18 97.5306 269.74C97.7573 270.287 97.8706 270.847 97.8706 271.42C97.8706 271.9 97.804 272.36 97.6706 272.8C97.5373 273.24 97.3506 273.647 97.1106 274.02C96.8706 274.393 96.5773 274.72 96.2306 275C95.884 275.267 95.504 275.467 95.0906 275.6L98.4306 281H95.8906L92.8106 276.06H89.5306V281H87.2906ZM89.5306 274.08H93.4506C93.7706 274.08 94.0573 274.013 94.3106 273.88C94.5773 273.733 94.804 273.54 94.9906 273.3C95.1773 273.047 95.324 272.76 95.4306 272.44C95.5373 272.12 95.5906 271.78 95.5906 271.42C95.5906 271.06 95.524 270.72 95.3906 270.4C95.2706 270.08 95.104 269.8 94.8906 269.56C94.6906 269.32 94.4506 269.133 94.1706 269C93.904 268.853 93.624 268.78 93.3306 268.78H89.5306V274.08ZM111.453 279.02V281H101.713V266.8H111.273V268.78H103.953V272.82H110.293V274.68H103.953V279.02H111.453ZM115.864 266.8L120.144 278.18L124.404 266.8H126.784L121.104 281H119.184L113.484 266.8H115.864ZM139.459 279.02V281H129.719V266.8H139.279V268.78H131.959V272.82H138.299V274.68H131.959V279.02H139.459ZM143.11 275.94V266.66H145.31V275.94H143.11ZM143.11 281V278.26H145.31V281H143.11Z" fill="#E55D69"/>
<defs>
<clipPath id="clip0">
<rect x="9" y="19" width="120" height="120" fill="white"/>
</clipPath>
</defs>
</svg>
