<svg width="240" height="252" viewBox="0 0 240 252" fill="none" xmlns="http://www.w3.org/2000/svg">
<path d="M3.06 201C2.86 201 2.69 200.93 2.55 200.79C2.41 200.65 2.34 200.48 2.34 200.28V180.75C2.34 180.53 2.4 180.35 2.52 180.21C2.66 180.07 2.84 180 3.06 180H10.83C13.27 180 15.18 180.57 16.56 181.71C17.96 182.85 18.66 184.47 18.66 186.57C18.66 188.03 18.3 189.26 17.58 190.26C16.88 191.24 15.9 191.95 14.64 192.39L19.02 200.04C19.08 200.16 19.11 200.27 19.11 200.37C19.11 200.55 19.04 200.7 18.9 200.82C18.78 200.94 18.64 201 18.48 201H15.75C15.43 201 15.18 200.93 15 200.79C14.84 200.65 14.69 200.45 14.55 200.19L10.68 193.08H6.51V200.28C6.51 200.48 6.44 200.65 6.3 200.79C6.18 200.93 6.01 201 5.79 201H3.06ZM10.74 189.69C11.94 189.69 12.84 189.42 13.44 188.88C14.06 188.34 14.37 187.56 14.37 186.54C14.37 185.52 14.06 184.73 13.44 184.17C12.84 183.61 11.94 183.33 10.74 183.33H6.51V189.69H10.74ZM29.6098 201.3C27.3898 201.3 25.6198 200.66 24.2998 199.38C22.9998 198.08 22.3098 196.26 22.2298 193.92L22.1998 193.17L22.2298 192.42C22.3298 190.14 23.0298 188.35 24.3298 187.05C25.6498 185.75 27.4098 185.1 29.6098 185.1C31.9698 185.1 33.7898 185.82 35.0698 187.26C36.3698 188.7 37.0198 190.62 37.0198 193.02V193.65C37.0198 193.85 36.9498 194.02 36.8098 194.16C36.6698 194.3 36.4898 194.37 36.2698 194.37H26.3098V194.61C26.3498 195.71 26.6498 196.64 27.2098 197.4C27.7898 198.14 28.5798 198.51 29.5798 198.51C30.7598 198.51 31.7098 198.05 32.4298 197.13C32.6098 196.91 32.7498 196.77 32.8498 196.71C32.9698 196.65 33.1398 196.62 33.3598 196.62H35.9398C36.1198 196.62 36.2698 196.68 36.3898 196.8C36.5298 196.9 36.5998 197.03 36.5998 197.19C36.5998 197.67 36.3098 198.24 35.7298 198.9C35.1698 199.54 34.3598 200.1 33.2998 200.58C32.2398 201.06 31.0098 201.3 29.6098 201.3ZM32.9398 191.85V191.76C32.9398 190.58 32.6398 189.63 32.0398 188.91C31.4598 188.19 30.6498 187.83 29.6098 187.83C28.5698 187.83 27.7598 188.19 27.1798 188.91C26.5998 189.63 26.3098 190.58 26.3098 191.76V191.85H32.9398ZM43.3577 201C43.1577 201 42.9877 200.93 42.8477 200.79C42.7077 200.65 42.6377 200.48 42.6377 200.28V188.58H40.2077C40.0077 188.58 39.8377 188.51 39.6977 188.37C39.5577 188.21 39.4877 188.03 39.4877 187.83V186.12C39.4877 185.92 39.5577 185.75 39.6977 185.61C39.8377 185.47 40.0077 185.4 40.2077 185.4H42.6377V184.17C42.6377 180.59 44.5977 178.8 48.5177 178.8H50.5577C50.7777 178.8 50.9477 178.87 51.0677 179.01C51.2077 179.13 51.2777 179.3 51.2777 179.52V181.23C51.2777 181.45 51.2077 181.63 51.0677 181.77C50.9277 181.91 50.7577 181.98 50.5577 181.98H48.6377C47.8577 181.98 47.3077 182.17 46.9877 182.55C46.6877 182.93 46.5377 183.52 46.5377 184.32V185.4H50.2577C50.4777 185.4 50.6477 185.47 50.7677 185.61C50.9077 185.73 50.9777 185.9 50.9777 186.12V187.83C50.9777 188.05 50.9077 188.23 50.7677 188.37C50.6277 188.51 50.4577 188.58 50.2577 188.58H46.5377V200.28C46.5377 200.48 46.4677 200.65 46.3277 200.79C46.1877 200.93 46.0177 201 45.8177 201H43.3577ZM60.9452 201.3C58.6052 201.3 56.7952 200.7 55.5152 199.5C54.2352 198.28 53.5452 196.62 53.4452 194.52L53.4152 193.2L53.4452 191.88C53.5452 189.8 54.2452 188.15 55.5452 186.93C56.8452 185.71 58.6452 185.1 60.9452 185.1C63.2452 185.1 65.0452 185.71 66.3452 186.93C67.6452 188.15 68.3452 189.8 68.4452 191.88C68.4652 192.12 68.4752 192.56 68.4752 193.2C68.4752 193.84 68.4652 194.28 68.4452 194.52C68.3452 196.62 67.6552 198.28 66.3752 199.5C65.0952 200.7 63.2852 201.3 60.9452 201.3ZM60.9452 198.33C62.0052 198.33 62.8252 198 63.4052 197.34C63.9852 196.66 64.3052 195.67 64.3652 194.37C64.3852 194.17 64.3952 193.78 64.3952 193.2C64.3952 192.62 64.3852 192.23 64.3652 192.03C64.3052 190.73 63.9852 189.75 63.4052 189.09C62.8252 188.41 62.0052 188.07 60.9452 188.07C59.8852 188.07 59.0652 188.41 58.4852 189.09C57.9052 189.75 57.5852 190.73 57.5252 192.03L57.4952 193.2L57.5252 194.37C57.5852 195.67 57.9052 196.66 58.4852 197.34C59.0652 198 59.8852 198.33 60.9452 198.33ZM73.4191 201C73.2191 201 73.0491 200.93 72.9091 200.79C72.7691 200.65 72.6991 200.48 72.6991 200.28V186.15C72.6991 185.95 72.7691 185.78 72.9091 185.64C73.0491 185.48 73.2191 185.4 73.4191 185.4H75.8491C76.0691 185.4 76.2491 185.47 76.3891 185.61C76.5291 185.75 76.5991 185.93 76.5991 186.15V187.38C77.0791 186.74 77.6791 186.25 78.3991 185.91C79.1391 185.57 79.9791 185.4 80.9191 185.4H82.1491C82.3691 185.4 82.5391 185.47 82.6591 185.61C82.7991 185.73 82.8691 185.9 82.8691 186.12V188.28C82.8691 188.48 82.7991 188.65 82.6591 188.79C82.5391 188.93 82.3691 189 82.1491 189H79.8091C78.8691 189 78.1291 189.27 77.5891 189.81C77.0491 190.35 76.7791 191.09 76.7791 192.03V200.28C76.7791 200.48 76.7091 200.65 76.5691 200.79C76.4291 200.93 76.2491 201 76.0291 201H73.4191ZM92.6838 207.6C92.0038 207.6 91.3938 207.46 90.8538 207.18C90.3338 206.9 90.0738 206.62 90.0738 206.34C90.0738 206.26 90.1238 206.17 90.2238 206.07L90.7338 205.62C90.8338 205.52 90.9338 205.47 91.0338 205.47C91.1138 205.47 91.3038 205.56 91.6038 205.74C91.9038 205.9 92.2438 205.98 92.6238 205.98C92.9438 205.98 93.2038 205.88 93.4038 205.68C93.6238 205.5 93.7338 205.26 93.7338 204.96C93.7338 204.68 93.6238 204.45 93.4038 204.27C93.2038 204.09 92.9438 204 92.6238 204C92.4038 204 92.1538 204.04 91.8738 204.12C91.5938 204.2 91.4038 204.24 91.3038 204.24C91.1238 204.24 90.9838 204.18 90.8838 204.06L90.3438 203.52C90.2638 203.42 90.2238 203.31 90.2238 203.19C90.2238 203.03 90.2838 202.83 90.4038 202.59L91.0338 201.15C89.2938 200.87 87.9238 200.15 86.9238 198.99C85.9238 197.83 85.3838 196.3 85.3038 194.4L85.2738 193.2L85.3038 192C85.3838 189.84 86.0738 188.15 87.3738 186.93C88.6938 185.71 90.4538 185.1 92.6538 185.1C94.2138 185.1 95.5338 185.38 96.6138 185.94C97.7138 186.5 98.5238 187.19 99.0438 188.01C99.5838 188.81 99.8738 189.57 99.9138 190.29C99.9338 190.49 99.8638 190.66 99.7038 190.8C99.5638 190.94 99.3938 191.01 99.1938 191.01H96.5538C96.3538 191.01 96.1938 190.97 96.0738 190.89C95.9738 190.79 95.8738 190.63 95.7738 190.41C95.4738 189.63 95.0738 189.07 94.5738 188.73C94.0938 188.39 93.4738 188.22 92.7138 188.22C91.6938 188.22 90.8938 188.55 90.3138 189.21C89.7338 189.85 89.4238 190.83 89.3838 192.15L89.3538 193.26L89.3838 194.25C89.4638 196.87 90.5738 198.18 92.7138 198.18C93.4938 198.18 94.1238 198.01 94.6038 197.67C95.0838 197.33 95.4738 196.77 95.7738 195.99C95.8738 195.77 95.9738 195.62 96.0738 195.54C96.1938 195.44 96.3538 195.39 96.5538 195.39H99.1938C99.3938 195.39 99.5638 195.46 99.7038 195.6C99.8638 195.74 99.9338 195.91 99.9138 196.11C99.8738 196.81 99.5938 197.56 99.0738 198.36C98.5738 199.16 97.7838 199.85 96.7038 200.43C95.6438 201.01 94.3238 201.3 92.7438 201.3L92.1138 202.59C92.2338 202.53 92.3938 202.48 92.5938 202.44C92.7938 202.4 92.9838 202.38 93.1638 202.38C93.8438 202.38 94.4038 202.61 94.8438 203.07C95.2838 203.55 95.5038 204.17 95.5038 204.93C95.5038 205.69 95.2538 206.32 94.7538 206.82C94.2538 207.34 93.5638 207.6 92.6838 207.6ZM110.843 201.3C108.503 201.3 106.693 200.7 105.413 199.5C104.133 198.28 103.443 196.62 103.343 194.52L103.313 193.2L103.343 191.88C103.443 189.8 104.143 188.15 105.443 186.93C106.743 185.71 108.543 185.1 110.843 185.1C113.143 185.1 114.943 185.71 116.243 186.93C117.543 188.15 118.243 189.8 118.343 191.88C118.363 192.12 118.373 192.56 118.373 193.2C118.373 193.84 118.363 194.28 118.343 194.52C118.243 196.62 117.553 198.28 116.273 199.5C114.993 200.7 113.183 201.3 110.843 201.3ZM110.843 198.33C111.903 198.33 112.723 198 113.303 197.34C113.883 196.66 114.203 195.67 114.263 194.37C114.283 194.17 114.293 193.78 114.293 193.2C114.293 192.62 114.283 192.23 114.263 192.03C114.203 190.73 113.883 189.75 113.303 189.09C112.723 188.41 111.903 188.07 110.843 188.07C109.783 188.07 108.963 188.41 108.383 189.09C107.803 189.75 107.483 190.73 107.423 192.03L107.393 193.2L107.423 194.37C107.483 195.67 107.803 196.66 108.383 197.34C108.963 198 109.783 198.33 110.843 198.33ZM137.072 201.3C134.852 201.3 133.082 200.66 131.762 199.38C130.462 198.08 129.772 196.26 129.692 193.92L129.662 193.17L129.692 192.42C129.792 190.14 130.492 188.35 131.792 187.05C133.112 185.75 134.872 185.1 137.072 185.1C139.432 185.1 141.252 185.82 142.532 187.26C143.832 188.7 144.482 190.62 144.482 193.02V193.65C144.482 193.85 144.412 194.02 144.272 194.16C144.132 194.3 143.952 194.37 143.732 194.37H133.772V194.61C133.812 195.71 134.112 196.64 134.672 197.4C135.252 198.14 136.042 198.51 137.042 198.51C138.222 198.51 139.172 198.05 139.892 197.13C140.072 196.91 140.212 196.77 140.312 196.71C140.432 196.65 140.602 196.62 140.822 196.62H143.402C143.582 196.62 143.732 196.68 143.852 196.8C143.992 196.9 144.062 197.03 144.062 197.19C144.062 197.67 143.772 198.24 143.192 198.9C142.632 199.54 141.822 200.1 140.762 200.58C139.702 201.06 138.472 201.3 137.072 201.3ZM140.402 191.85V191.76C140.402 190.58 140.102 189.63 139.502 188.91C138.922 188.19 138.112 187.83 137.072 187.83C136.032 187.83 135.222 188.19 134.642 188.91C134.062 189.63 133.772 190.58 133.772 191.76V191.85H140.402ZM154.476 201.3C152.976 201.3 151.716 201.08 150.696 200.64C149.676 200.18 148.916 199.65 148.416 199.05C147.936 198.43 147.696 197.9 147.696 197.46C147.696 197.26 147.766 197.1 147.906 196.98C148.046 196.86 148.206 196.8 148.386 196.8H150.756C150.936 196.8 151.086 196.87 151.206 197.01C151.286 197.07 151.496 197.25 151.836 197.55C152.176 197.87 152.576 198.12 153.036 198.3C153.496 198.48 154.006 198.57 154.566 198.57C155.366 198.57 156.026 198.41 156.546 198.09C157.066 197.77 157.326 197.33 157.326 196.77C157.326 196.35 157.206 196.01 156.966 195.75C156.746 195.49 156.336 195.26 155.736 195.06C155.136 194.84 154.246 194.61 153.066 194.37C151.366 194.01 150.106 193.46 149.286 192.72C148.486 191.98 148.086 191 148.086 189.78C148.086 188.98 148.326 188.23 148.806 187.53C149.286 186.81 149.996 186.23 150.936 185.79C151.896 185.33 153.036 185.1 154.356 185.1C155.696 185.1 156.856 185.32 157.836 185.76C158.816 186.18 159.556 186.69 160.056 187.29C160.576 187.87 160.836 188.39 160.836 188.85C160.836 189.03 160.766 189.19 160.626 189.33C160.506 189.45 160.356 189.51 160.176 189.51H157.956C157.796 189.51 157.626 189.44 157.446 189.3C157.306 189.2 157.086 189.01 156.786 188.73C156.486 188.45 156.136 188.23 155.736 188.07C155.336 187.91 154.866 187.83 154.326 187.83C153.586 187.83 153.006 187.99 152.586 188.31C152.186 188.63 151.986 189.05 151.986 189.57C151.986 189.95 152.086 190.26 152.286 190.5C152.486 190.74 152.876 190.97 153.456 191.19C154.036 191.41 154.906 191.63 156.066 191.85C157.986 192.23 159.356 192.82 160.176 193.62C161.016 194.42 161.436 195.4 161.436 196.56C161.436 197.96 160.826 199.1 159.606 199.98C158.386 200.86 156.676 201.3 154.476 201.3ZM172.183 201.3C169.983 201.3 168.223 200.69 166.903 199.47C165.603 198.25 164.913 196.56 164.833 194.4L164.803 193.2L164.833 192C164.913 189.84 165.603 188.15 166.903 186.93C168.223 185.71 169.983 185.1 172.183 185.1C173.743 185.1 175.063 185.38 176.143 185.94C177.243 186.5 178.053 187.19 178.573 188.01C179.113 188.81 179.403 189.57 179.443 190.29C179.463 190.49 179.393 190.66 179.233 190.8C179.093 190.94 178.923 191.01 178.723 191.01H176.083C175.883 191.01 175.723 190.97 175.603 190.89C175.503 190.79 175.403 190.63 175.303 190.41C175.003 189.63 174.603 189.07 174.103 188.73C173.623 188.39 173.003 188.22 172.243 188.22C171.223 188.22 170.423 188.55 169.843 189.21C169.263 189.85 168.953 190.83 168.913 192.15L168.883 193.26L168.913 194.25C168.993 196.87 170.103 198.18 172.243 198.18C173.023 198.18 173.653 198.01 174.133 197.67C174.613 197.33 175.003 196.77 175.303 195.99C175.403 195.77 175.503 195.62 175.603 195.54C175.723 195.44 175.883 195.39 176.083 195.39H178.723C178.923 195.39 179.093 195.46 179.233 195.6C179.393 195.74 179.463 195.91 179.443 196.11C179.403 196.81 179.123 197.56 178.603 198.36C178.083 199.16 177.283 199.85 176.203 200.43C175.123 201.01 173.783 201.3 172.183 201.3ZM190.372 201.3C188.032 201.3 186.222 200.7 184.942 199.5C183.662 198.28 182.972 196.62 182.872 194.52L182.842 193.2L182.872 191.88C182.972 189.8 183.672 188.15 184.972 186.93C186.272 185.71 188.072 185.1 190.372 185.1C192.672 185.1 194.472 185.71 195.772 186.93C197.072 188.15 197.772 189.8 197.872 191.88C197.892 192.12 197.902 192.56 197.902 193.2C197.902 193.84 197.892 194.28 197.872 194.52C197.772 196.62 197.082 198.28 195.802 199.5C194.522 200.7 192.712 201.3 190.372 201.3ZM190.372 198.33C191.432 198.33 192.252 198 192.832 197.34C193.412 196.66 193.732 195.67 193.792 194.37C193.812 194.17 193.822 193.78 193.822 193.2C193.822 192.62 193.812 192.23 193.792 192.03C193.732 190.73 193.412 189.75 192.832 189.09C192.252 188.41 191.432 188.07 190.372 188.07C189.312 188.07 188.492 188.41 187.912 189.09C187.332 189.75 187.012 190.73 186.952 192.03L186.922 193.2L186.952 194.37C187.012 195.67 187.332 196.66 187.912 197.34C188.492 198 189.312 198.33 190.372 198.33ZM202.876 201C202.676 201 202.506 200.93 202.366 200.79C202.226 200.65 202.156 200.48 202.156 200.28V180.42C202.156 180.2 202.226 180.03 202.366 179.91C202.506 179.77 202.676 179.7 202.876 179.7H205.366C205.586 179.7 205.756 179.77 205.876 179.91C206.016 180.03 206.086 180.2 206.086 180.42V200.28C206.086 200.48 206.016 200.65 205.876 200.79C205.756 200.93 205.586 201 205.366 201H202.876ZM215.495 201.3C214.475 201.3 213.535 201.1 212.675 200.7C211.835 200.28 211.165 199.72 210.665 199.02C210.185 198.32 209.945 197.55 209.945 196.71C209.945 195.35 210.495 194.25 211.595 193.41C212.695 192.57 214.205 192 216.125 191.7L220.235 191.1V190.47C220.235 189.59 220.015 188.93 219.575 188.49C219.135 188.05 218.425 187.83 217.445 187.83C216.785 187.83 216.245 187.96 215.825 188.22C215.425 188.46 215.105 188.7 214.865 188.94C214.625 189.2 214.465 189.37 214.385 189.45C214.305 189.69 214.155 189.81 213.935 189.81H211.625C211.445 189.81 211.285 189.75 211.145 189.63C211.025 189.51 210.965 189.35 210.965 189.15C210.985 188.65 211.225 188.08 211.685 187.44C212.165 186.8 212.895 186.25 213.875 185.79C214.855 185.33 216.055 185.1 217.475 185.1C219.835 185.1 221.555 185.63 222.635 186.69C223.715 187.75 224.255 189.14 224.255 190.86V200.28C224.255 200.48 224.185 200.65 224.045 200.79C223.925 200.93 223.755 201 223.535 201H221.105C220.905 201 220.735 200.93 220.595 200.79C220.455 200.65 220.385 200.48 220.385 200.28V199.11C219.945 199.75 219.315 200.28 218.495 200.7C217.695 201.1 216.695 201.3 215.495 201.3ZM216.515 198.45C217.615 198.45 218.515 198.09 219.215 197.37C219.915 196.65 220.265 195.6 220.265 194.22V193.59L217.265 194.07C216.105 194.25 215.225 194.54 214.625 194.94C214.045 195.34 213.755 195.83 213.755 196.41C213.755 197.05 214.025 197.55 214.565 197.91C215.105 198.27 215.755 198.45 216.515 198.45ZM229.724 201C229.524 201 229.354 200.93 229.214 200.79C229.074 200.65 229.004 200.48 229.004 200.28V186.15C229.004 185.95 229.074 185.78 229.214 185.64C229.354 185.48 229.524 185.4 229.724 185.4H232.154C232.374 185.4 232.554 185.47 232.694 185.61C232.834 185.75 232.904 185.93 232.904 186.15V187.38C233.384 186.74 233.984 186.25 234.704 185.91C235.444 185.57 236.284 185.4 237.224 185.4H238.454C238.674 185.4 238.844 185.47 238.964 185.61C239.104 185.73 239.174 185.9 239.174 186.12V188.28C239.174 188.48 239.104 188.65 238.964 188.79C238.844 188.93 238.674 189 238.454 189H236.114C235.174 189 234.434 189.27 233.894 189.81C233.354 190.35 233.084 191.09 233.084 192.03V200.28C233.084 200.48 233.014 200.65 232.874 200.79C232.734 200.93 232.554 201 232.334 201H229.724Z" fill="#333333"/>
<circle opacity="0.2" cx="101" cy="72" r="72" fill="#F2C94C" fill-opacity="0.8"/>
<path d="M177.674 46.1163C177.666 46.1163 177.658 46.1163 177.651 46.1163H169.765V43.4181C169.808 42.3502 169.117 41.3904 168.091 41.0921C162.616 39.6575 156.979 38.9382 151.32 38.9521C142.016 38.9521 129.339 41.0455 119.965 50.5823C110.661 40.9525 97.8911 38.9521 88.6102 38.9521C82.951 38.9382 77.3138 39.6575 71.8395 41.0921C70.8131 41.3904 70.1223 42.3502 70.1648 43.4181V46.093H62.326C61.0415 46.093 60 47.1345 60 48.4191V122.713C60 123.997 61.0415 125.039 62.326 125.039C62.7255 125.037 63.118 124.933 63.4658 124.736C63.6984 124.62 86.9587 111.896 119.43 120.084H119.779H119.988C120.174 120.107 120.361 120.107 120.547 120.084C153.111 111.827 176.371 124.527 176.511 124.736C177.231 125.152 178.117 125.152 178.837 124.736C179.552 124.323 179.995 123.562 180 122.736V48.4423C180 47.1578 178.959 46.1163 177.674 46.1163ZM64.6521 119.014V50.7684H70.2113V109.105C70.1967 110.39 71.2263 111.443 72.5109 111.457C72.6365 111.459 72.7621 111.45 72.8862 111.431C77.6982 110.697 82.5564 110.308 87.4239 110.268C94.1665 110.151 100.881 111.166 107.288 113.269C92.8189 111.519 78.1422 113.497 64.6521 119.014ZM87.4239 105.639C83.1932 105.649 78.9673 105.921 74.7703 106.454V45.2557C79.2991 44.2467 83.9238 43.7318 88.5637 43.7205C97.263 43.7205 109.265 45.7209 117.593 55.118L117.662 113.06C112.824 109.896 103.381 105.639 87.4239 105.639ZM122.314 55.118C130.642 45.8139 142.644 43.7205 151.343 43.7205C155.983 43.7342 160.608 44.2488 165.137 45.2557V106.454C160.963 105.916 156.761 105.636 152.553 105.616C136.689 105.616 127.222 109.873 122.314 113.036V55.118ZM175.325 119.014C161.806 113.482 147.095 111.504 132.595 113.269C139.033 111.158 145.779 110.144 152.553 110.268C157.451 110.296 162.34 110.676 167.184 111.408C168.454 111.601 169.64 110.727 169.832 109.457C169.851 109.333 169.86 109.208 169.858 109.082V50.7684H175.418L175.325 119.014Z" fill="#393636"/>
<path d="M73.34 237.02V239H63.6V224.8H73.16V226.78H65.84V230.82H72.18V232.68H65.84V237.02H73.34ZM88.7908 239V228.78L84.5708 236.52H83.3308L79.0908 228.78V239H76.8508V224.8H79.2508L83.9508 233.48L88.6508 224.8H91.0508V239H88.7908ZM112.755 235.34C112.755 235.913 112.635 236.427 112.395 236.88C112.168 237.333 111.855 237.72 111.455 238.04C111.068 238.347 110.608 238.587 110.075 238.76C109.541 238.92 108.975 239 108.375 239H101.595V224.8H108.915C109.408 224.8 109.855 224.907 110.255 225.12C110.655 225.333 110.995 225.613 111.275 225.96C111.555 226.293 111.768 226.68 111.915 227.12C112.075 227.547 112.155 227.98 112.155 228.42C112.155 229.113 111.975 229.767 111.615 230.38C111.268 230.98 110.768 231.427 110.115 231.72C110.928 231.96 111.568 232.4 112.035 233.04C112.515 233.667 112.755 234.433 112.755 235.34ZM110.455 234.92C110.455 234.627 110.401 234.347 110.295 234.08C110.201 233.813 110.068 233.58 109.895 233.38C109.735 233.18 109.535 233.02 109.295 232.9C109.055 232.78 108.795 232.72 108.515 232.72H103.835V237.06H108.375C108.668 237.06 108.941 237.007 109.195 236.9C109.448 236.78 109.668 236.627 109.855 236.44C110.041 236.24 110.188 236.013 110.295 235.76C110.401 235.493 110.455 235.213 110.455 234.92ZM103.835 226.74V230.92H107.955C108.235 230.92 108.488 230.867 108.715 230.76C108.955 230.653 109.161 230.513 109.335 230.34C109.521 230.153 109.661 229.933 109.755 229.68C109.861 229.427 109.915 229.147 109.915 228.84C109.915 228.227 109.741 227.727 109.395 227.34C109.048 226.94 108.608 226.74 108.075 226.74H103.835ZM116.291 239V224.8H122.471C123.111 224.8 123.697 224.933 124.231 225.2C124.777 225.467 125.244 225.82 125.631 226.26C126.017 226.687 126.317 227.18 126.531 227.74C126.757 228.287 126.871 228.847 126.871 229.42C126.871 229.9 126.804 230.36 126.671 230.8C126.537 231.24 126.351 231.647 126.111 232.02C125.871 232.393 125.577 232.72 125.231 233C124.884 233.267 124.504 233.467 124.091 233.6L127.431 239H124.891L121.811 234.06H118.531V239H116.291ZM118.531 232.08H122.451C122.771 232.08 123.057 232.013 123.311 231.88C123.577 231.733 123.804 231.54 123.991 231.3C124.177 231.047 124.324 230.76 124.431 230.44C124.537 230.12 124.591 229.78 124.591 229.42C124.591 229.06 124.524 228.72 124.391 228.4C124.271 228.08 124.104 227.8 123.891 227.56C123.691 227.32 123.451 227.133 123.171 227C122.904 226.853 122.624 226.78 122.331 226.78H118.531V232.08ZM140.453 237.02V239H130.713V224.8H140.273V226.78H132.953V230.82H139.293V232.68H132.953V237.02H140.453ZM144.864 224.8L149.144 236.18L153.404 224.8H155.784L150.104 239H148.184L142.484 224.8H144.864ZM168.459 237.02V239H158.719V224.8H168.279V226.78H160.959V230.82H167.299V232.68H160.959V237.02H168.459ZM172.11 233.94V224.66H174.31V233.94H172.11ZM172.11 239V236.26H174.31V239H172.11Z" fill="#E55D69"/>
</svg>
