<svg width="189" height="259" viewBox="0 0 189 259" fill="none" xmlns="http://www.w3.org/2000/svg">
<path d="M32.8468 198C32.6468 198 32.4768 197.93 32.3368 197.79C32.1968 197.65 32.1268 197.48 32.1268 197.28V180.69H26.5768C26.3768 180.69 26.2068 180.62 26.0668 180.48C25.9268 180.34 25.8568 180.17 25.8568 179.97V177.75C25.8568 177.53 25.9168 177.35 26.0368 177.21C26.1768 177.07 26.3568 177 26.5768 177H41.8768C42.0968 177 42.2768 177.07 42.4168 177.21C42.5568 177.35 42.6268 177.53 42.6268 177.75V179.97C42.6268 180.17 42.5568 180.34 42.4168 180.48C42.2768 180.62 42.0968 180.69 41.8768 180.69H36.3568V197.28C36.3568 197.48 36.2868 197.65 36.1468 197.79C36.0068 197.93 35.8268 198 35.6068 198H32.8468ZM50.177 198.3C47.957 198.3 46.1869 197.66 44.8669 196.38C43.5669 195.08 42.8769 193.26 42.7969 190.92L42.7669 190.17L42.7969 189.42C42.8969 187.14 43.5969 185.35 44.8969 184.05C46.2169 182.75 47.977 182.1 50.177 182.1C52.537 182.1 54.357 182.82 55.637 184.26C56.937 185.7 57.5869 187.62 57.5869 190.02V190.65C57.5869 190.85 57.517 191.02 57.377 191.16C57.237 191.3 57.0569 191.37 56.837 191.37H46.8769V191.61C46.9169 192.71 47.2169 193.64 47.7769 194.4C48.3569 195.14 49.1469 195.51 50.1469 195.51C51.327 195.51 52.277 195.05 52.9969 194.13C53.1769 193.91 53.317 193.77 53.417 193.71C53.537 193.65 53.707 193.62 53.927 193.62H56.507C56.687 193.62 56.837 193.68 56.957 193.8C57.097 193.9 57.1669 194.03 57.1669 194.19C57.1669 194.67 56.8769 195.24 56.297 195.9C55.737 196.54 54.927 197.1 53.867 197.58C52.807 198.06 51.577 198.3 50.177 198.3ZM53.507 188.85V188.76C53.507 187.58 53.207 186.63 52.607 185.91C52.027 185.19 51.217 184.83 50.177 184.83C49.137 184.83 48.3269 185.19 47.7469 185.91C47.1669 186.63 46.8769 187.58 46.8769 188.76V188.85H53.507ZM68.4214 198.3C66.2214 198.3 64.4614 197.69 63.1414 196.47C61.8414 195.25 61.1514 193.56 61.0714 191.4L61.0414 190.2L61.0714 189C61.1514 186.84 61.8414 185.15 63.1414 183.93C64.4614 182.71 66.2214 182.1 68.4214 182.1C69.9814 182.1 71.3014 182.38 72.3814 182.94C73.4814 183.5 74.2914 184.19 74.8114 185.01C75.3514 185.81 75.6414 186.57 75.6814 187.29C75.7014 187.49 75.6314 187.66 75.4714 187.8C75.3314 187.94 75.1614 188.01 74.9614 188.01H72.3214C72.1214 188.01 71.9614 187.97 71.8414 187.89C71.7414 187.79 71.6414 187.63 71.5414 187.41C71.2414 186.63 70.8414 186.07 70.3414 185.73C69.8614 185.39 69.2414 185.22 68.4814 185.22C67.4614 185.22 66.6614 185.55 66.0814 186.21C65.5014 186.85 65.1914 187.83 65.1514 189.15L65.1214 190.26L65.1514 191.25C65.2314 193.87 66.3414 195.18 68.4814 195.18C69.2614 195.18 69.8914 195.01 70.3714 194.67C70.8514 194.33 71.2414 193.77 71.5414 192.99C71.6414 192.77 71.7414 192.62 71.8414 192.54C71.9614 192.44 72.1214 192.39 72.3214 192.39H74.9614C75.1614 192.39 75.3314 192.46 75.4714 192.6C75.6314 192.74 75.7014 192.91 75.6814 193.11C75.6414 193.81 75.3614 194.56 74.8414 195.36C74.3214 196.16 73.5214 196.85 72.4414 197.43C71.3614 198.01 70.0214 198.3 68.4214 198.3ZM80.4301 198C80.2301 198 80.0601 197.93 79.9201 197.79C79.7801 197.65 79.7101 197.48 79.7101 197.28V183.12C79.7101 182.92 79.7801 182.75 79.9201 182.61C80.0601 182.47 80.2301 182.4 80.4301 182.4H82.8901C83.0901 182.4 83.2601 182.47 83.4001 182.61C83.5401 182.75 83.6101 182.92 83.6101 183.12V184.35C84.7901 182.85 86.4601 182.1 88.6201 182.1C90.4601 182.1 91.9201 182.71 93.0001 183.93C94.0801 185.13 94.6201 186.77 94.6201 188.85V197.28C94.6201 197.48 94.5501 197.65 94.4101 197.79C94.2901 197.93 94.1201 198 93.9001 198H91.2601C91.0601 198 90.8901 197.93 90.7501 197.79C90.6101 197.65 90.5401 197.48 90.5401 197.28V189.03C90.5401 187.85 90.2501 186.94 89.6701 186.3C89.1101 185.64 88.2901 185.31 87.2101 185.31C86.1501 185.31 85.3101 185.64 84.6901 186.3C84.0901 186.96 83.7901 187.87 83.7901 189.03V197.28C83.7901 197.48 83.7201 197.65 83.5801 197.79C83.4601 197.93 83.2901 198 83.0701 198H80.4301ZM106.231 198.3C103.891 198.3 102.081 197.7 100.801 196.5C99.5208 195.28 98.8308 193.62 98.7308 191.52L98.7008 190.2L98.7308 188.88C98.8308 186.8 99.5308 185.15 100.831 183.93C102.131 182.71 103.931 182.1 106.231 182.1C108.531 182.1 110.331 182.71 111.631 183.93C112.931 185.15 113.631 186.8 113.731 188.88C113.751 189.12 113.761 189.56 113.761 190.2C113.761 190.84 113.751 191.28 113.731 191.52C113.631 193.62 112.941 195.28 111.661 196.5C110.381 197.7 108.571 198.3 106.231 198.3ZM106.231 195.33C107.291 195.33 108.111 195 108.691 194.34C109.271 193.66 109.591 192.67 109.651 191.37C109.671 191.17 109.681 190.78 109.681 190.2C109.681 189.62 109.671 189.23 109.651 189.03C109.591 187.73 109.271 186.75 108.691 186.09C108.111 185.41 107.291 185.07 106.231 185.07C105.171 185.07 104.351 185.41 103.771 186.09C103.191 186.75 102.871 187.73 102.811 189.03L102.781 190.2L102.811 191.37C102.871 192.67 103.191 193.66 103.771 194.34C104.351 195 105.171 195.33 106.231 195.33ZM118.735 198C118.535 198 118.365 197.93 118.225 197.79C118.085 197.65 118.015 197.48 118.015 197.28V177.42C118.015 177.2 118.085 177.03 118.225 176.91C118.365 176.77 118.535 176.7 118.735 176.7H121.225C121.445 176.7 121.615 176.77 121.735 176.91C121.875 177.03 121.945 177.2 121.945 177.42V197.28C121.945 197.48 121.875 197.65 121.735 197.79C121.615 197.93 121.445 198 121.225 198H118.735ZM133.724 198.3C131.384 198.3 129.574 197.7 128.294 196.5C127.014 195.28 126.324 193.62 126.224 191.52L126.194 190.2L126.224 188.88C126.324 186.8 127.024 185.15 128.324 183.93C129.624 182.71 131.424 182.1 133.724 182.1C136.024 182.1 137.824 182.71 139.124 183.93C140.424 185.15 141.124 186.8 141.224 188.88C141.244 189.12 141.254 189.56 141.254 190.2C141.254 190.84 141.244 191.28 141.224 191.52C141.124 193.62 140.434 195.28 139.154 196.5C137.874 197.7 136.064 198.3 133.724 198.3ZM133.724 195.33C134.784 195.33 135.604 195 136.184 194.34C136.764 193.66 137.084 192.67 137.144 191.37C137.164 191.17 137.174 190.78 137.174 190.2C137.174 189.62 137.164 189.23 137.144 189.03C137.084 187.73 136.764 186.75 136.184 186.09C135.604 185.41 134.784 185.07 133.724 185.07C132.664 185.07 131.844 185.41 131.264 186.09C130.684 186.75 130.364 187.73 130.304 189.03L130.274 190.2L130.304 191.37C130.364 192.67 130.684 193.66 131.264 194.34C131.844 195 132.664 195.33 133.724 195.33ZM152.528 204.6C150.748 204.6 149.308 204.3 148.208 203.7C147.108 203.12 146.328 202.45 145.868 201.69C145.408 200.93 145.178 200.28 145.178 199.74C145.178 199.56 145.248 199.4 145.388 199.26C145.548 199.12 145.718 199.05 145.898 199.05H148.508C148.688 199.05 148.838 199.09 148.958 199.17C149.098 199.27 149.208 199.44 149.288 199.68C149.488 200.22 149.808 200.67 150.248 201.03C150.708 201.41 151.418 201.6 152.378 201.6C153.578 201.6 154.458 201.33 155.018 200.79C155.598 200.25 155.888 199.32 155.888 198V195.96C154.788 197.26 153.248 197.91 151.268 197.91C149.188 197.91 147.618 197.27 146.558 195.99C145.518 194.71 144.958 192.99 144.878 190.83L144.848 190.02L144.878 189.21C144.958 187.09 145.528 185.38 146.588 184.08C147.648 182.76 149.208 182.1 151.268 182.1C152.328 182.1 153.258 182.3 154.058 182.7C154.858 183.1 155.528 183.65 156.068 184.35V183.15C156.068 182.93 156.138 182.75 156.278 182.61C156.418 182.47 156.588 182.4 156.788 182.4H159.218C159.418 182.4 159.588 182.48 159.728 182.64C159.868 182.78 159.938 182.95 159.938 183.15L159.968 197.61C159.968 199.83 159.348 201.55 158.108 202.77C156.868 203.99 155.008 204.6 152.528 204.6ZM152.378 194.73C153.518 194.73 154.368 194.37 154.928 193.65C155.508 192.93 155.828 192.05 155.888 191.01C155.908 190.85 155.918 190.52 155.918 190.02C155.918 189.54 155.908 189.22 155.888 189.06C155.828 188 155.508 187.11 154.928 186.39C154.368 185.67 153.518 185.31 152.378 185.31C150.218 185.31 149.078 186.64 148.958 189.3L148.928 190.02C148.928 191.44 149.178 192.58 149.678 193.44C150.198 194.3 151.098 194.73 152.378 194.73ZM165.464 179.82C165.264 179.82 165.094 179.75 164.954 179.61C164.814 179.47 164.744 179.3 164.744 179.1V176.94C164.744 176.74 164.814 176.57 164.954 176.43C165.094 176.29 165.264 176.22 165.464 176.22H168.194C168.394 176.22 168.564 176.29 168.704 176.43C168.864 176.57 168.944 176.74 168.944 176.94V179.1C168.944 179.3 168.874 179.47 168.734 179.61C168.594 179.75 168.414 179.82 168.194 179.82H165.464ZM165.584 198C165.384 198 165.214 197.93 165.074 197.79C164.934 197.65 164.864 197.48 164.864 197.28V183.12C164.864 182.92 164.934 182.75 165.074 182.61C165.214 182.47 165.384 182.4 165.584 182.4H168.074C168.294 182.4 168.464 182.47 168.584 182.61C168.724 182.73 168.794 182.9 168.794 183.12V197.28C168.794 197.48 168.724 197.65 168.584 197.79C168.464 197.93 168.294 198 168.074 198H165.584ZM178.205 198.3C177.185 198.3 176.245 198.1 175.385 197.7C174.545 197.28 173.875 196.72 173.375 196.02C172.895 195.32 172.655 194.55 172.655 193.71C172.655 192.35 173.205 191.25 174.305 190.41C175.405 189.57 176.915 189 178.835 188.7L182.945 188.1V187.47C182.945 186.59 182.725 185.93 182.285 185.49C181.845 185.05 181.135 184.83 180.155 184.83C179.495 184.83 178.955 184.96 178.535 185.22C178.135 185.46 177.815 185.7 177.575 185.94C177.335 186.2 177.175 186.37 177.095 186.45C177.015 186.69 176.865 186.81 176.645 186.81H174.335C174.155 186.81 173.995 186.75 173.855 186.63C173.735 186.51 173.675 186.35 173.675 186.15C173.695 185.65 173.935 185.08 174.395 184.44C174.875 183.8 175.605 183.25 176.585 182.79C177.565 182.33 178.765 182.1 180.185 182.1C182.545 182.1 184.265 182.63 185.345 183.69C186.425 184.75 186.965 186.14 186.965 187.86V197.28C186.965 197.48 186.895 197.65 186.755 197.79C186.635 197.93 186.465 198 186.245 198H183.815C183.615 198 183.445 197.93 183.305 197.79C183.165 197.65 183.095 197.48 183.095 197.28V196.11C182.655 196.75 182.025 197.28 181.205 197.7C180.405 198.1 179.405 198.3 178.205 198.3ZM179.225 195.45C180.325 195.45 181.225 195.09 181.925 194.37C182.625 193.65 182.975 192.6 182.975 191.22V190.59L179.975 191.07C178.815 191.25 177.935 191.54 177.335 191.94C176.755 192.34 176.465 192.83 176.465 193.41C176.465 194.05 176.735 194.55 177.275 194.91C177.815 195.27 178.465 195.45 179.225 195.45Z" fill="#333333"/>
<circle opacity="0.2" cx="72" cy="72" r="72" fill="#F2C94C" fill-opacity="0.8"/>
<path d="M174.75 117.75H170.25V52.5C170.243 46.29 165.21 41.2573 159 41.25H60C53.79 41.2573 48.7573 46.29 48.75 52.5V117.75H44.25C43.0074 117.75 42 118.757 42 120V124.5C42.0073 130.71 47.04 135.743 53.25 135.75H165.75C171.96 135.743 176.993 130.71 177 124.5V120C177 118.757 175.993 117.75 174.75 117.75ZM53.25 52.5C53.25 48.772 56.272 45.75 60 45.75H159C162.728 45.75 165.75 48.772 165.75 52.5V117.75H53.25V52.5ZM172.5 124.5C172.5 128.228 169.478 131.25 165.75 131.25H53.25C49.522 131.25 46.5 128.228 46.5 124.5V122.25H172.5V124.5Z" fill="#393636"/>
<path d="M161.25 48H57.75C56.5074 48 55.5 49.0074 55.5 50.25V113.25C55.5 114.493 56.5074 115.5 57.75 115.5H161.25C162.493 115.5 163.5 114.493 163.5 113.25V50.25C163.5 49.0074 162.493 48 161.25 48ZM159 111H60V52.5H159V111Z" fill="#393636"/>
<path d="M60.34 244.02V246H50.6V231.8H60.16V233.78H52.84V237.82H59.18V239.68H52.84V244.02H60.34ZM75.7908 246V235.78L71.5708 243.52H70.3308L66.0908 235.78V246H63.8508V231.8H66.2508L70.9508 240.48L75.6508 231.8H78.0508V246H75.7908ZM99.7545 242.34C99.7545 242.913 99.6345 243.427 99.3945 243.88C99.1679 244.333 98.8545 244.72 98.4545 245.04C98.0679 245.347 97.6079 245.587 97.0745 245.76C96.5412 245.92 95.9745 246 95.3745 246H88.5945V231.8H95.9145C96.4079 231.8 96.8545 231.907 97.2545 232.12C97.6545 232.333 97.9945 232.613 98.2745 232.96C98.5545 233.293 98.7679 233.68 98.9145 234.12C99.0745 234.547 99.1545 234.98 99.1545 235.42C99.1545 236.113 98.9745 236.767 98.6145 237.38C98.2679 237.98 97.7679 238.427 97.1145 238.72C97.9279 238.96 98.5679 239.4 99.0345 240.04C99.5145 240.667 99.7545 241.433 99.7545 242.34ZM97.4545 241.92C97.4545 241.627 97.4012 241.347 97.2945 241.08C97.2012 240.813 97.0679 240.58 96.8945 240.38C96.7345 240.18 96.5345 240.02 96.2945 239.9C96.0545 239.78 95.7945 239.72 95.5145 239.72H90.8345V244.06H95.3745C95.6679 244.06 95.9412 244.007 96.1945 243.9C96.4479 243.78 96.6679 243.627 96.8545 243.44C97.0412 243.24 97.1879 243.013 97.2945 242.76C97.4012 242.493 97.4545 242.213 97.4545 241.92ZM90.8345 233.74V237.92H94.9545C95.2345 237.92 95.4879 237.867 95.7145 237.76C95.9545 237.653 96.1612 237.513 96.3345 237.34C96.5212 237.153 96.6612 236.933 96.7545 236.68C96.8612 236.427 96.9145 236.147 96.9145 235.84C96.9145 235.227 96.7412 234.727 96.3945 234.34C96.0479 233.94 95.6079 233.74 95.0745 233.74H90.8345ZM103.291 246V231.8H109.471C110.111 231.8 110.697 231.933 111.231 232.2C111.777 232.467 112.244 232.82 112.631 233.26C113.017 233.687 113.317 234.18 113.531 234.74C113.757 235.287 113.871 235.847 113.871 236.42C113.871 236.9 113.804 237.36 113.671 237.8C113.537 238.24 113.351 238.647 113.111 239.02C112.871 239.393 112.577 239.72 112.231 240C111.884 240.267 111.504 240.467 111.091 240.6L114.431 246H111.891L108.811 241.06H105.531V246H103.291ZM105.531 239.08H109.451C109.771 239.08 110.057 239.013 110.311 238.88C110.577 238.733 110.804 238.54 110.991 238.3C111.177 238.047 111.324 237.76 111.431 237.44C111.537 237.12 111.591 236.78 111.591 236.42C111.591 236.06 111.524 235.72 111.391 235.4C111.271 235.08 111.104 234.8 110.891 234.56C110.691 234.32 110.451 234.133 110.171 234C109.904 233.853 109.624 233.78 109.331 233.78H105.531V239.08ZM127.453 244.02V246H117.713V231.8H127.273V233.78H119.953V237.82H126.293V239.68H119.953V244.02H127.453ZM131.864 231.8L136.144 243.18L140.404 231.8H142.784L137.104 246H135.184L129.484 231.8H131.864ZM155.459 244.02V246H145.719V231.8H155.279V233.78H147.959V237.82H154.299V239.68H147.959V244.02H155.459ZM159.11 240.94V231.66H161.31V240.94H159.11ZM159.11 246V243.26H161.31V246H159.11Z" fill="#E55D69"/>
</svg>
